<svg id="Objects" xmlns="http://www.w3.org/2000/svg" viewBox="0 0 436.98 549.04"><defs><style>.cls-1{font-size:87.53px;}.cls-1,.cls-2,.cls-3{fill:#fff;}.cls-1,.cls-2{font-family:Modern-Regular, Modern No. 20;}.cls-2{font-size:98px;}.cls-4{font-size:44px;fill:#f1f1f2;stroke:#fff;stroke-miterlimit:10;font-family:FlorensLPAlternates, FlorensLPAlternates;}.cls-5,.cls-7{font-style:italic;}.cls-6{font-family:LuciaBT-Regular, Lucia BT;}.cls-7{letter-spacing:0em;}</style></defs><title>marquee</title><text class="cls-1" transform="matrix(0.95, -0.26, 0.27, 0.96, 84.18, 252.46)">Lauren</text><text class="cls-2" transform="translate(109.7 442.43) rotate(-17.89)">Steven</text><path class="cls-3" d="M429.59,426.89q1.5.11,1.68,1.36a1.65,1.65,0,0,1-.4,1.33,2,2,0,0,1-1.33.72,10.39,10.39,0,0,1-3.14,0,10.08,10.08,0,0,0-3-.05,9,9,0,0,0-4.78,2.26,6.8,6.8,0,0,0-1.44,1.85,3.15,3.15,0,0,0-.37,1.91,3.7,3.7,0,0,0,.92,2,7.12,7.12,0,0,0,1.79,1.45q1-.25,2.25-.58a19.5,19.5,0,0,1,2.37-.49,9.53,9.53,0,0,1,4,.24,2.89,2.89,0,0,1,2.17,2.61,3,3,0,0,1-1.53,3.08,8.17,8.17,0,0,1-3.35,1.42,8.58,8.58,0,0,1-3.16-.19,9.11,9.11,0,0,0-3.37-.17,12,12,0,0,0-5.15,2.21,26.37,26.37,0,0,0-4.85,4.39,21,21,0,0,0-3.43,5.41,10,10,0,0,0-.89,5.38,6,6,0,0,0,1.6,3.44,8.42,8.42,0,0,0,3.15,2.05,14.61,14.61,0,0,0,4,.87,20.27,20.27,0,0,0,4.38-.14,27.2,27.2,0,0,0,6.24-1.67,26.47,26.47,0,0,0,5.63-3,17,17,0,0,0,4.06-4,7.7,7.7,0,0,0,1.53-4.62,3,3,0,0,0-1.85-2.23,6.18,6.18,0,0,0-3-.28,10.65,10.65,0,0,0-3.6,1.19,13.15,13.15,0,0,0-3,2.17,12.21,12.21,0,0,0-2,2.56,5.55,5.55,0,0,0-.83,2.4l.76.11q1.5.11,1.68,1.36a1.72,1.72,0,0,1-.35,1.32,2,2,0,0,1-1.38.72,3.27,3.27,0,0,1-3.09-.84,4.37,4.37,0,0,1-1.17-2.28,7.64,7.64,0,0,1,.69-3.81,15.29,15.29,0,0,1,2.69-4.3,20.28,20.28,0,0,1,4.26-3.67,12.82,12.82,0,0,1,5.29-2,7.52,7.52,0,0,1,3.16.25,27.75,27.75,0,0,1,3.18,1.15,21.94,21.94,0,0,0,3.34,1.12,9.38,9.38,0,0,0,3.63.18,4.63,4.63,0,0,0,2.05-.87,8.13,8.13,0,0,0,1.77-1.73,7.55,7.55,0,0,0,1.17-2.28,5.67,5.67,0,0,0,.23-2.53,3.7,3.7,0,0,0-1.46-2.45,3.57,3.57,0,0,0-2.81-.77,4.33,4.33,0,0,0-2.76,1.5,3.66,3.66,0,0,0-.85,3,1.27,1.27,0,0,0,.17.45,1.31,1.31,0,0,1,.17.45,2,2,0,0,0,.84-.44,1.25,1.25,0,0,1,.75-.32,1.56,1.56,0,0,1,1.27.35,1.69,1.69,0,0,1,.63,1.08,2.06,2.06,0,0,1-1,2,5.08,5.08,0,0,1-2.14,1,4.15,4.15,0,0,1-3.69-1.34,6.94,6.94,0,0,1-1.94-4,6.26,6.26,0,0,1,1.59-5.69,8.75,8.75,0,0,1,5-2.45,11.08,11.08,0,0,1,3.84.15,10.83,10.83,0,0,1,3.66,1.5,10.22,10.22,0,0,1,2.89,2.83,9.5,9.5,0,0,1,1.53,4.14,9.25,9.25,0,0,1-2.14,7.46,10.94,10.94,0,0,1-7.2,3.92,13.84,13.84,0,0,1-2.64.1,11.77,11.77,0,0,1-2.83-.51,16,16,0,0,1-2.11,7.3,20.74,20.74,0,0,1-5,5.85,29.55,29.55,0,0,1-7,4.16,30.83,30.83,0,0,1-7.91,2.22,29.48,29.48,0,0,1-6.39.2,17.09,17.09,0,0,1-5.83-1.47,11.91,11.91,0,0,1-4.47-3.51,12.1,12.1,0,0,1-2.32-5.94,15.35,15.35,0,0,1,.56-6.6,22.68,22.68,0,0,1,3.13-6.43,29.22,29.22,0,0,1,5.11-5.59,29.53,29.53,0,0,1,6.47-4.19,7.08,7.08,0,0,1-1.8-3.78,8.11,8.11,0,0,1,.5-4.37A10.45,10.45,0,0,1,415,430a12.37,12.37,0,0,1,3.69-2.43,16.55,16.55,0,0,1,4.34-1.24,9.42,9.42,0,0,1,2.59,0Q426.77,426.44,429.59,426.89Z" transform="translate(-173.06 -125.1)"/><path class="cls-3" d="M235,423.13a246.85,246.85,0,0,1,58.61-34.27c21.33-8.77,43.62-14.92,66-20.17,43.88-10.27,88.84-16.92,131.13-33,22.88-8.71,46.19-20.23,64.27-37a1.1,1.1,0,0,0-1.36-1.73c-18.49,14-37.76,25.58-59.31,34.27s-44.13,14.81-66.79,20c-43.7,10.1-88.4,16.9-130.34,33.4-22.84,9-45,20.71-63,37.58-.55.52.12,1.42.74.94Z" transform="translate(-173.06 -125.1)"/><path class="cls-3" d="M243.5,483.7a246.85,246.85,0,0,1,58.61-34.27c21.33-8.77,43.62-14.92,66-20.17C412,419,457,412.34,499.29,396.23c22.87-8.71,46.19-20.23,64.27-37a1.1,1.1,0,0,0-1.36-1.73c-18.49,14-37.76,25.58-59.31,34.27s-44.13,14.81-66.79,20c-43.7,10.1-88.4,16.9-130.34,33.4-22.84,9-45,20.71-63,37.58-.55.52.12,1.42.74.94Z" transform="translate(-173.06 -125.1)"/><path class="cls-3" d="M234.45,422.36c.23,9.89,2.14,19.83,3.49,29.63s2,20,4.55,29.48a.68.68,0,0,0,1.35-.19c-.17-9.83-2.34-19.86-3.72-29.6s-2.29-19.87-4.78-29.45a.45.45,0,0,0-.88.12Z" transform="translate(-173.06 -125.1)"/><path class="cls-3" d="M554.84,298.43c-.71,4.51.57,9.35,1.17,13.84.69,5.19,1.36,10.37,2.09,15.55,1.35,9.56,1.73,20.06,4.72,29.25a.77.77,0,0,0,1.45-.2c.35-9.66-2.17-19.87-3.49-29.43-.72-5.18-1.49-10.35-2.26-15.53-.66-4.48-.76-9.49-2.68-13.63a.53.53,0,0,0-1,.14Z" transform="translate(-173.06 -125.1)"/><path class="cls-3" d="M242.7,480.26c-2.33,3.51,1.27,6.35,4.32,7.7,4.5,2,11.75,5.21,16.77,4.17a.57.57,0,0,0,.26-1c-5.27-3.69-18.89-2.66-20.09-10.54a.71.71,0,0,0-1.26-.33Z" transform="translate(-173.06 -125.1)"/><path class="cls-3" d="M264.18,491.19c.34-3.58-.49-7.24-.92-10.8s-.31-7.57-2.05-10.65a.56.56,0,0,0-1.05.15c-.84,3.44.4,7.34.95,10.8s.77,7.29,2.08,10.64a.53.53,0,0,0,1-.14Z" transform="translate(-173.06 -125.1)"/><path class="cls-3" d="M262.49,488.05c.68,10.91-17.84,11.13-25.23,13.07a95.84,95.84,0,0,0-20.86,7.81c-9.26,5-22.26,14.36-23.76,25.72a.57.57,0,0,0,1,.41c2.53-3.06,4.27-6.72,6.81-9.81a53.73,53.73,0,0,1,8.42-8.18c6.81-5.32,14.75-8.93,22.95-11.57s17.23-3.15,25.06-6.43c4.64-1.94,8.16-6.11,6.66-11.32-.18-.63-1.09-.28-1.05.29Z" transform="translate(-173.06 -125.1)"/><path class="cls-3" d="M237.08,443.88c-12.35.8-25.56,7.23-35.87,13.7A122,122,0,0,0,185,469.64c-4.21,3.74-9.84,8.33-11.93,13.69a.61.61,0,0,0,.94.71c4.94-3.39,8.6-9,13.06-13.08a93,93,0,0,1,16-11.72,111.67,111.67,0,0,1,16-7.66c6.07-2.31,12.41-3.47,18.55-5.47,1.33-.43.61-2.32-.63-2.24Z" transform="translate(-173.06 -125.1)"/><path class="cls-3" d="M173.52,483.46a76.08,76.08,0,0,0,6.23,9.37c2.16,3,4.1,6.44,7,8.75a.51.51,0,0,0,.77-.6c-1.25-3.27-3.74-6-5.82-8.76a80.6,80.6,0,0,0-7.4-9.23c-.34-.34-1.07,0-.8.48Z" transform="translate(-173.06 -125.1)"/><path class="cls-3" d="M185.79,499.57c1.07,11.17,3.62,22.83,6.34,33.71a.57.57,0,0,0,1.14-.16c-1.28-11.14-3-22.95-5.93-33.77a.79.79,0,0,0-1.56.22Z" transform="translate(-173.06 -125.1)"/><path class="cls-3" d="M556.25,298.75c-3.33-13.43-23.46-15.25-33.92-10.35a.9.9,0,0,0,.48,1.7c6.17-.07,12-1.88,18.22-.57s10.41,4.86,14.11,9.7c.36.47,1.28.15,1.12-.48Z" transform="translate(-173.06 -125.1)"/><path class="cls-3" d="M522.16,289.54c-.32,4.29.57,8.59,1.14,12.83s.4,9,2.45,12.64a.62.62,0,0,0,1.16-.16c1-4.08-.52-8.72-1.12-12.83s-.94-8.61-2.43-12.65a.64.64,0,0,0-1.21.17Z" transform="translate(-173.06 -125.1)"/><path class="cls-3" d="M526.79,317.83c.66-2,.22-4-.06-6.09a26.9,26.9,0,0,0-1.55-6.76.69.69,0,0,0-1.3.18,26.9,26.9,0,0,0,.37,6.92c.3,2.08.42,4.1,1.61,5.87a.54.54,0,0,0,.92-.13Z" transform="translate(-173.06 -125.1)"/><path class="cls-3" d="M523.27,292.06c5.65-17,25.27-12.78,39.17-16.22a62,62,0,0,0,17.38-7.26c5-3.07,11-7,13.55-12.47.21-.45-.35-.73-.69-.52-3.31,2-5.9,4.91-9,7.25a58.77,58.77,0,0,1-11,6.65c-7.5,3.46-15.31,4.9-23.49,5.49-9.89.71-27.41,3.2-27.67,16.61,0,1,1.42,1.55,1.77.47Z" transform="translate(-173.06 -125.1)"/><path class="cls-3" d="M559.85,334c4.65-4.16,10.17-5.61,16-7.41a56.84,56.84,0,0,0,14.69-7.05c7.81-5.21,17.64-14.14,19.51-23.79.11-.56-.62-.75-.94-.39-3.67,4.21-6.16,9.27-10,13.43A56.69,56.69,0,0,1,584,320.44c-7.84,4.16-20.16,4.58-24.83,13-.23.41.39.85.72.55Z" transform="translate(-173.06 -125.1)"/><path class="cls-3" d="M598.19,282.49a62.73,62.73,0,0,0,4.81,7.46c1.86,2.64,3.51,5.72,5.76,8a.64.64,0,0,0,1.08-.64c-1.13-2.86-3.14-5.42-4.7-8.06a64.31,64.31,0,0,0-5.11-7.88c-.75-.92-2.41,0-1.84,1.1Z" transform="translate(-173.06 -125.1)"/><path class="cls-3" d="M593.1,257.91a.5.5,0,0,0-.14-1,.5.5,0,0,0,.14,1Z" transform="translate(-173.06 -125.1)"/><path class="cls-3" d="M593.23,258.88a1.49,1.49,0,0,0-.41-2.95,1.49,1.49,0,0,0,.41,2.95Z" transform="translate(-173.06 -125.1)"/><path class="cls-3" d="M592,257.56c1.08,8.1,3.77,16.51,6.7,24.11a.32.32,0,0,0,.6-.17c-1-8.11-2.64-16.76-5.54-24.44a.93.93,0,0,0-1.77.5Z" transform="translate(-173.06 -125.1)"/><path class="cls-3" d="M599.75,281.83c-.32-4.68-2-9.37-3.2-13.9-.92-3.52-1.43-7.2-3.32-10.34a.56.56,0,0,0-1,.27c-.11,4.13,1.58,8.25,2.64,12.22s1.84,8.33,3.65,12.1a.64.64,0,0,0,1.21-.34Z" transform="translate(-173.06 -125.1)"/><path class="cls-3" d="M551.76,301c1.59,10.47,5.5,20.51,7.19,31a.11.11,0,0,0,.21,0c-.75-10.43-1.35-21.76-6-31.35a.74.74,0,0,0-1.41.4Z" transform="translate(-173.06 -125.1)"/><path class="cls-3" d="M558.68,333.38c0,.55.06,1.1.12,1.64a1.62,1.62,0,0,0,.38,1.15.24.24,0,0,0,.33,0,1.62,1.62,0,0,0,0-1.21c-.09-.54-.22-1.07-.33-1.61a.27.27,0,0,0-.53.07Z" transform="translate(-173.06 -125.1)"/><path class="cls-3" d="M559.51,338.66a107.27,107.27,0,0,1,0,20.44.56.56,0,0,0,1.12.15,46.68,46.68,0,0,0-1-20.61.07.07,0,0,0-.14,0Z" transform="translate(-173.06 -125.1)"/><path class="cls-3" d="M561.53,359.41c2-2,2.33-6.19,1.81-8.84-.26-1.31-2.3-1.43-2.44,0s0,2.94-.2,4.41a12,12,0,0,0-.13,4c.09.39.61.74,1,.39Z" transform="translate(-173.06 -125.1)"/><path class="cls-3" d="M563.18,355.84a42.41,42.41,0,0,0-1.29-14.15c-.1-.41-.74-.48-.79,0a42.8,42.8,0,0,0,.64,14.15c.19.74,1.34.87,1.44,0Z" transform="translate(-173.06 -125.1)"/><path class="cls-3" d="M552.72,299.88a10,10,0,0,0,1.15,5,.9.9,0,0,0,.83.33.84.84,0,0,0,.23-.06.89.89,0,0,0,.53-.71,10.16,10.16,0,0,0-1-5c-.43-1-1.76-.48-1.74.49Z" transform="translate(-173.06 -125.1)"/><path class="cls-3" d="M553.27,300.79a14.47,14.47,0,0,1,.44,1.89,3.8,3.8,0,0,0,.73,1.63.56.56,0,0,0,.77.09c1.47-1.25.88-3.33,0-4.74a1.11,1.11,0,0,0-1.44-.26,1.13,1.13,0,0,0-.46,1.39Z" transform="translate(-173.06 -125.1)"/><path class="cls-3" d="M528.83,314.34a10.86,10.86,0,0,0-.91-3.27,8.54,8.54,0,0,0-1.52-3c-.18-.2-.62-.15-.62.17a8.36,8.36,0,0,0,.68,3.15,11.42,11.42,0,0,0,1.49,3.29.51.51,0,0,0,.89-.38Z" transform="translate(-173.06 -125.1)"/><path class="cls-3" d="M527.63,314.68c.51-3.42-.18-8.48-2-11.48a.47.47,0,0,0-.9.13c-.8,3.38,0,8.42,1.56,11.53a.69.69,0,0,0,1.3-.18Z" transform="translate(-173.06 -125.1)"/><path class="cls-3" d="M527,311.71A64.94,64.94,0,0,0,523,288.07a.59.59,0,0,0-1.12.16A64.93,64.93,0,0,0,526,311.85c.18.47,1,.39,1-.14Z" transform="translate(-173.06 -125.1)"/><path class="cls-3" d="M583.67,271.72a26.31,26.31,0,0,0,6.59-4.41c1.48-1.25,4-3.11,4.19-5.15a.38.38,0,0,0-.52-.39c-1.79.72-2.94,3-4.22,4.46a74.43,74.43,0,0,1-6.08,5.43,0,0,0,0,0,0,.06Z" transform="translate(-173.06 -125.1)"/><path class="cls-3" d="M588.85,274.19a45.6,45.6,0,0,0,3.59-3,31.85,31.85,0,0,0,3.12-2.89c.29-.33-.2-.77-.53-.52a35.41,35.41,0,0,0-3.45,3.22,40.77,40.77,0,0,0-3,3c-.11.14.08.31.22.21Z" transform="translate(-173.06 -125.1)"/><path class="cls-3" d="M591,278.19a30.54,30.54,0,0,0,3-2.37,10.58,10.58,0,0,0,2.5-2.39c.14-.24-.06-.57-.35-.45a11.19,11.19,0,0,0-2.83,2.35,29.17,29.17,0,0,0-2.59,2.6c-.14.17.1.37.27.26Z" transform="translate(-173.06 -125.1)"/><path class="cls-3" d="M592.79,283.63c1-.7,1.93-1.41,2.86-2.19a11.17,11.17,0,0,0,2.34-2.2.21.21,0,0,0-.25-.32,11.89,11.89,0,0,0-2.68,2.13c-.86.76-1.65,1.57-2.45,2.4-.11.11.07.26.18.18Z" transform="translate(-173.06 -125.1)"/><path class="cls-3" d="M595.62,287a21.4,21.4,0,0,0,4.86-4.06c.12-.14-.06-.38-.22-.29a21.51,21.51,0,0,0-4.89,4.11c-.14.16.09.34.25.24Z" transform="translate(-173.06 -125.1)"/><path class="cls-3" d="M597.88,291.37a24.23,24.23,0,0,0,4.6-3.38c.1-.09,0-.29-.13-.22a24.11,24.11,0,0,0-4.63,3.32c-.13.12,0,.38.17.28Z" transform="translate(-173.06 -125.1)"/><path class="cls-3" d="M600.31,295.84c1-.87,2-1.77,2.94-2.71a9.51,9.51,0,0,0,2.17-2.47.27.27,0,0,0-.36-.35,10.67,10.67,0,0,0-2.68,2.43c-.86.87-1.66,1.79-2.45,2.72-.2.23.15.57.38.37Z" transform="translate(-173.06 -125.1)"/><path class="cls-3" d="M602.47,299.24a38.08,38.08,0,0,0,3.53-2.9,11.41,11.41,0,0,0,2.59-2.69c.14-.25-.18-.52-.42-.41a12.75,12.75,0,0,0-3.17,2.67,34.59,34.59,0,0,0-2.87,3c-.18.21.12.47.33.33Z" transform="translate(-173.06 -125.1)"/><path class="cls-3" d="M538.91,293.86a20.21,20.21,0,0,1,7.4,1.51,16.64,16.64,0,0,1,3.32,2,7.94,7.94,0,0,0,2.42,1.8c.2.07.5-.08.43-.34-.53-2.15-3.5-3.58-5.43-4.35a13.86,13.86,0,0,0-8.14-.91c-.13,0-.15.24,0,.26Z" transform="translate(-173.06 -125.1)"/><path class="cls-3" d="M540.82,298.13a20.91,20.91,0,0,1,4.45,1.71c1.06.56,2.21,1.83,3.41,1.93a.26.26,0,0,0,.27-.36c-.4-1.22-2.23-1.92-3.32-2.44a17.81,17.81,0,0,0-4.72-1.48c-.43-.07-.48.55-.09.65Z" transform="translate(-173.06 -125.1)"/><path class="cls-3" d="M539.48,302.73a25.66,25.66,0,0,1,2.84,1,14.55,14.55,0,0,1,2.65,1.9.42.42,0,0,0,.59-.6,7,7,0,0,0-6-2.59.13.13,0,0,0,0,.25Z" transform="translate(-173.06 -125.1)"/><path class="cls-3" d="M539.9,306.21a5.65,5.65,0,0,0,2.57.65.21.21,0,0,0,.1-.38,5.66,5.66,0,0,0-2.54-.75.25.25,0,0,0-.13.47Z" transform="translate(-173.06 -125.1)"/><path class="cls-3" d="M539.22,317.07c5.5-2.59,11.4-6.33,15.49-10.87.35-.39-.24-.91-.63-.62-5,3.78-9.72,7.81-14.93,11.37-.07,0,0,.15.07.12Z" transform="translate(-173.06 -125.1)"/><path class="cls-3" d="M547.68,317.54c3.53-1.37,7.57-4,9.59-7.31.15-.25-.13-.58-.38-.37-1.57,1.24-2.88,2.76-4.44,4s-3.24,2.33-4.89,3.44c-.13.08,0,.27.13.22Z" transform="translate(-173.06 -125.1)"/><path class="cls-3" d="M550.54,322.94c1.51-1,2.9-2.15,4.32-3.28a20.77,20.77,0,0,0,3.59-3.2c.12-.15-.06-.4-.24-.3a22.31,22.31,0,0,0-4.07,3.14c-1.3,1.12-2.61,2.22-3.81,3.45-.12.12.08.28.2.2Z" transform="translate(-173.06 -125.1)"/><path class="cls-3" d="M551,329.13a19.18,19.18,0,0,0,5.12-2.56c1.34-.91,3.06-2,3.74-3.55a.27.27,0,0,0-.36-.35c-1.46.73-2.63,2.21-3.93,3.21a53.45,53.45,0,0,1-4.7,3.05c-.12.08,0,.23.12.2Z" transform="translate(-173.06 -125.1)"/><path class="cls-3" d="M554.07,336.5c1.34-.81,2.61-1.75,3.86-2.69a16.88,16.88,0,0,0,3.21-2.67.24.24,0,0,0-.28-.36,16.91,16.91,0,0,0-3.4,2.42c-1.23,1-2.46,1.95-3.59,3a.16.16,0,0,0,.2.26Z" transform="translate(-173.06 -125.1)"/><path class="cls-3" d="M554.19,342.27c2.65-.84,6-2.75,7.2-5.39a.27.27,0,0,0-.42-.31c-1.1.84-2,2-3.07,2.85a23.93,23.93,0,0,1-3.89,2.48.21.21,0,0,0,.17.39Z" transform="translate(-173.06 -125.1)"/><path class="cls-3" d="M551.49,352c3.55-1.13,8-3.44,9.92-6.77a.21.21,0,0,0-.3-.29c-1.53,1.08-2.76,2.55-4.3,3.66a37.8,37.8,0,0,1-5.41,3.21.11.11,0,0,0,.08.19Z" transform="translate(-173.06 -125.1)"/><path class="cls-3" d="M549.11,361.2c4.87-1.89,10.49-5.72,13.2-10.26a.32.32,0,0,0-.45-.44c-2.25,1.61-4.12,3.7-6.28,5.43s-4.49,3.23-6.71,4.87c-.22.16,0,.49.24.4Z" transform="translate(-173.06 -125.1)"/><path class="cls-3" d="M247.11,419.18c-4.48,1.66-8.7,5.07-11.89,8.57-.35.38.26,1,.65.63,3.67-3.24,7.6-5.87,11.5-8.79.23-.17,0-.51-.25-.42Z" transform="translate(-173.06 -125.1)"/><path class="cls-3" d="M244.62,427.7a15.5,15.5,0,0,0-8.18,6c-.23.39.2.91.6.59,1.31-1,2.39-2.34,3.68-3.42s2.72-1.93,4-3c.12-.1,0-.26-.13-.22Z" transform="translate(-173.06 -125.1)"/><path class="cls-3" d="M244.17,434.35c-2.82,1.18-6.52,3.21-8,6-.09.17.13.38.29.29a28.92,28.92,0,0,0,3.71-2.85c1.39-1,2.84-2,4.3-3,.26-.17,0-.57-.27-.46Z" transform="translate(-173.06 -125.1)"/><path class="cls-3" d="M244.44,441.29a38.83,38.83,0,0,0-3.87,1.53,8.27,8.27,0,0,0-2.88,1.55c-.18.19,0,.44.25.43a9.7,9.7,0,0,0,3.46-1.35,37.11,37.11,0,0,0,3.3-1.71c.27-.16,0-.52-.26-.44Z" transform="translate(-173.06 -125.1)"/><path class="cls-3" d="M245.45,446.2c-1.49.72-2.9,1.53-4.33,2.36a10.58,10.58,0,0,0-3.15,2.25.21.21,0,0,0,.2.34,10.67,10.67,0,0,0,3.46-1.74c1.4-.88,2.77-1.76,4.1-2.74a.27.27,0,0,0-.27-.46Z" transform="translate(-173.06 -125.1)"/><path class="cls-3" d="M247,451.86c-1.32.68-2.61,1.42-3.91,2.15a15.37,15.37,0,0,0-3.37,2.1.31.31,0,0,0,.31.52,15.38,15.38,0,0,0,3.45-2c1.26-.79,2.52-1.58,3.75-2.42a.22.22,0,0,0-.23-.38Z" transform="translate(-173.06 -125.1)"/><path class="cls-3" d="M253.34,454.24a79.76,79.76,0,0,0-13.59,8c-.53.38,0,1.3.6,1a79.71,79.71,0,0,0,13.29-8.52.29.29,0,0,0-.3-.5Z" transform="translate(-173.06 -125.1)"/><path class="cls-3" d="M254.78,459.53a48.2,48.2,0,0,0-6.8,4c-2.13,1.44-4.54,2.89-6.17,4.9-.12.15.06.4.24.3,2.16-1.13,4-2.88,6-4.3,2.27-1.61,4.68-3,7-4.6a.2.2,0,0,0-.2-.34Z" transform="translate(-173.06 -125.1)"/><path class="cls-3" d="M258.16,462.7c-2.9,2-5.67,4.12-8.45,6.27-2.42,1.86-5.18,3.56-7.14,5.92a.25.25,0,0,0,.29.37c2.76-1.33,5.07-3.61,7.45-5.52,2.75-2.19,5.48-4.37,8.11-6.71a.21.21,0,0,0-.26-.33Z" transform="translate(-173.06 -125.1)"/><path class="cls-3" d="M255.4,484.26a45.63,45.63,0,0,1-4.93-1.93c-1.52-.83-2.75-2.37-4.33-3a.28.28,0,0,0-.37.37c.66,1.57,2.67,2.59,4.12,3.34a11.78,11.78,0,0,0,5.46,1.58c.19,0,.21-.29,0-.36Z" transform="translate(-173.06 -125.1)"/><path class="cls-3" d="M256.54,480.18c-1-.63-2.3-.7-3.35-1.36a7.1,7.1,0,0,1-1.54-1.33,2.89,2.89,0,0,0-1-1,.31.31,0,0,0-.42.24c0,1.25,1.56,2.36,2.51,2.94s2.6,1.37,3.78.87a.24.24,0,0,0,0-.4Z" transform="translate(-173.06 -125.1)"/><path class="cls-3" d="M257.25,476.26a5.64,5.64,0,0,1-1.9-.83c-.51-.36-.92-.85-1.41-1.24a.19.19,0,0,0-.3.18c.15,1.65,2.15,2.52,3.61,2.36.28,0,.24-.41,0-.46Z" transform="translate(-173.06 -125.1)"/><path class="cls-3" d="M186.76,476.75c-2.14,1.44-4.13,3.11-6.14,4.72-1.74,1.41-3.79,2.73-5.15,4.52a.26.26,0,0,0,.31.39c2-1,3.7-2.75,5.41-4.19,2-1.66,4-3.3,5.81-5.13a.2.2,0,0,0-.25-.31Z" transform="translate(-173.06 -125.1)"/><path class="cls-3" d="M186.8,482.08a70.36,70.36,0,0,0-8.5,7.39c-.39.38.1,1,.54.68a70.63,70.63,0,0,0,8.28-7.77c.17-.2-.12-.45-.32-.31Z" transform="translate(-173.06 -125.1)"/><path class="cls-3" d="M187.46,486.72c-1.22,1-2.33,2.17-3.45,3.3a14.19,14.19,0,0,0-2.5,3c-.12.22.18.36.34.26a15,15,0,0,0,3-2.77c1-1.1,2.05-2.19,3-3.38.2-.25-.15-.6-.4-.39Z" transform="translate(-173.06 -125.1)"/><path class="cls-3" d="M188.5,491.37c-.93.88-1.77,1.83-2.64,2.77-.72.79-1.82,1.66-2.06,2.73,0,.16.15.26.28.21,1-.37,1.65-1.53,2.28-2.31.83-1,1.68-2,2.44-3.11.13-.19-.12-.46-.3-.29Z" transform="translate(-173.06 -125.1)"/><path class="cls-3" d="M192.82,496.07a40.42,40.42,0,0,0-6.62,5.43c-.11.13.06.35.21.27a40.44,40.44,0,0,0,6.77-5.24.29.29,0,0,0-.36-.46Z" transform="translate(-173.06 -125.1)"/><path class="cls-3" d="M197.56,499a66,66,0,0,0-5.26,4.41,26.37,26.37,0,0,0-4.42,4.3c-.16.23.08.62.36.46,1.88-1,3.43-2.77,5-4.19a63.31,63.31,0,0,0,4.71-4.57c.23-.25-.16-.6-.42-.41Z" transform="translate(-173.06 -125.1)"/><path class="cls-3" d="M199.88,505c-1.92,1.71-3.73,3.54-5.58,5.32a44.54,44.54,0,0,0-4.86,4.89.27.27,0,0,0,.38.37,50.24,50.24,0,0,0,5.59-5.31c1.64-1.61,3.31-3.19,4.88-4.87.23-.24-.17-.63-.42-.41Z" transform="translate(-173.06 -125.1)"/><path class="cls-3" d="M203.21,509.84a100.15,100.15,0,0,0-12.38,11.69c-.34.36.24.92.61.6a100,100,0,0,0,12.13-11.93c.19-.23-.14-.53-.37-.36Z" transform="translate(-173.06 -125.1)"/><path class="cls-3" d="M198.09,520.21c-1.11,1.29-2.22,2.58-3.32,3.89-.93,1.11-2.29,2.31-2.75,3.71-.05.15.11.38.28.27,1.24-.74,2-2.19,2.92-3.31,1.1-1.41,2.17-2.85,3.25-4.28.18-.24-.18-.51-.37-.28Z" transform="translate(-173.06 -125.1)"/><path class="cls-3" d="M534.65,369.93c-16.73,8.86-33.42,17.09-51.34,23.33-18.43,6.43-37.37,11.29-56.38,15.66-36.14,8.31-72.83,14.77-108.07,26.56C299.29,442,279.4,450,262.31,461.73c-.31.21,0,.77.35.58,16.57-9.15,33.26-17.38,51.15-23.67,18.4-6.47,37.32-11.37,56.31-15.76,36.14-8.36,72.84-14.81,108.12-26.49,19.55-6.47,39.6-14.31,56.59-26.15.16-.11,0-.39-.18-.3Z" transform="translate(-173.06 -125.1)"/><path class="cls-3" d="M533.12,318.52c-33.38,18.7-68.87,30.59-105.93,39.66C391.35,367,355,373.75,319.72,384.73c-19.86,6.18-40.1,13.41-58,24.08-.35.21-.13.79.26.6,16.91-8.11,33.82-15.62,51.67-21.48,18.38-6,37.14-10.8,56-15.21,36.11-8.46,72.67-15.57,107.8-27.65,19.44-6.69,38.76-14.79,56.1-25.95.33-.21,0-.79-.36-.6Z" transform="translate(-173.06 -125.1)"/><path class="cls-3" d="M529.8,292.78A109.89,109.89,0,0,0,525.52,306c0,.17.23.23.29.08a109.6,109.6,0,0,0,4.14-13.24c0-.1-.12-.16-.15-.06Z" transform="translate(-173.06 -125.1)"/><path class="cls-3" d="M531.41,295.46A147.94,147.94,0,0,0,527,310.27c0,.13.18.18.22.06a147.88,147.88,0,0,0,4.4-14.83c0-.12-.16-.17-.2-.05Z" transform="translate(-173.06 -125.1)"/><path class="cls-3" d="M533,299.29a117.17,117.17,0,0,0-4.94,14.9c0,.16.21.21.27.07a116.77,116.77,0,0,0,5-14.82c.06-.23-.26-.37-.35-.14Z" transform="translate(-173.06 -125.1)"/><path class="cls-3" d="M534.73,303.16a75,75,0,0,0-3.48,11.13c0,.15.19.2.25.07A75.08,75.08,0,0,0,535,303.24c0-.17-.23-.24-.29-.08Z" transform="translate(-173.06 -125.1)"/><path class="cls-3" d="M530.21,287.3a82.2,82.2,0,0,0,6.86-9,.15.15,0,0,0-.24-.18,82.21,82.21,0,0,0-6.8,9,.12.12,0,0,0,.19.14Z" transform="translate(-173.06 -125.1)"/><path class="cls-3" d="M535.81,287.1c2.24-3.29,4.85-6.54,6.64-10.11.1-.2-.19-.34-.32-.18-2.59,3-4.58,6.65-6.75,10-.19.29.23.61.43.32Z" transform="translate(-173.06 -125.1)"/><path class="cls-3" d="M540,287.61a53.44,53.44,0,0,0,3.18-4.39,38.53,38.53,0,0,0,2.65-4.09c.1-.19-.18-.31-.3-.17a42.81,42.81,0,0,0-3.15,4.42,48,48,0,0,0-2.63,4.1c-.08.15.14.25.24.14Z" transform="translate(-173.06 -125.1)"/><path class="cls-3" d="M546,284.13c1.43-2.18,2.94-4.34,4.17-6.64.07-.13-.14-.24-.22-.13-1.53,2.1-2.8,4.39-4.13,6.63-.08.13.1.27.19.14Z" transform="translate(-173.06 -125.1)"/><path class="cls-3" d="M550.33,283.44a60.4,60.4,0,0,0,4.66-6.67.13.13,0,0,0-.21-.16,60.29,60.29,0,0,0-4.57,6.74c0,.08.06.16.11.08Z" transform="translate(-173.06 -125.1)"/><path class="cls-3" d="M555.6,281.22a39.54,39.54,0,0,0,3.83-5.08.12.12,0,0,0-.19-.14,39.55,39.55,0,0,0-3.83,5.08.12.12,0,0,0,.19.14Z" transform="translate(-173.06 -125.1)"/><path class="cls-3" d="M559.52,280.18c1-1.32,2-2.61,2.93-4a.08.08,0,0,0-.13-.1c-1.07,1.26-2,2.6-3,3.92a.14.14,0,0,0,.22.17Z" transform="translate(-173.06 -125.1)"/><path class="cls-3" d="M564.79,278.4a25.31,25.31,0,0,0,3.4-5c.08-.16-.16-.28-.26-.15a25.27,25.27,0,0,0-3.3,5.07c0,.1.1.17.16.09Z" transform="translate(-173.06 -125.1)"/><path class="cls-3" d="M246.62,486.12a77.4,77.4,0,0,0,5.47-7.39.18.18,0,0,0-.28-.21,77.37,77.37,0,0,0-5.6,7.29.26.26,0,0,0,.41.31Z" transform="translate(-173.06 -125.1)"/><path class="cls-3" d="M249.8,487.19a61.76,61.76,0,0,0,4.24-5.66.12.12,0,0,0-.19-.14,61.85,61.85,0,0,0-4.33,5.59.18.18,0,0,0,.28.21Z" transform="translate(-173.06 -125.1)"/><path class="cls-3" d="M252.49,488.78c.66-.75,1.27-1.53,1.88-2.32a12.65,12.65,0,0,0,1.55-2.23.18.18,0,0,0-.27-.2,12.62,12.62,0,0,0-1.72,2.11c-.59.8-1.18,1.6-1.72,2.44a.18.18,0,0,0,.28.21Z" transform="translate(-173.06 -125.1)"/><path class="cls-3" d="M255.06,489.38a32.92,32.92,0,0,0,3.42-4.54c.05-.1-.1-.22-.18-.14a32.93,32.93,0,0,0-3.43,4.54.12.12,0,0,0,.19.14Z" transform="translate(-173.06 -125.1)"/><path class="cls-3" d="M258.58,489.39a21.07,21.07,0,0,0,1.68-2.27.08.08,0,0,0-.13-.1,21.06,21.06,0,0,0-1.72,2.24.11.11,0,0,0,.17.13Z" transform="translate(-173.06 -125.1)"/><path class="cls-3" d="M260.15,489.68a11.6,11.6,0,0,0,.83-1.17c0-.07-.07-.15-.13-.1a11.63,11.63,0,0,0-.89,1.12.12.12,0,0,0,.19.14Z" transform="translate(-173.06 -125.1)"/><path class="cls-3" d="M257.75,492.31a13.34,13.34,0,0,0-1.06,2.17,13.06,13.06,0,0,0-.83,2.25c0,.14.18.21.25.1a13.07,13.07,0,0,0,1.12-2.13,13.35,13.35,0,0,0,.9-2.24c0-.21-.26-.32-.38-.15Z" transform="translate(-173.06 -125.1)"/><path class="cls-3" d="M256.44,490c-.81,1.47-1.47,3-2.16,4.55a22.13,22.13,0,0,0-1.68,4.11c0,.15.19.23.27.11a22.11,22.11,0,0,0,1.94-4c.67-1.54,1.38-3.06,1.94-4.64a.16.16,0,0,0-.3-.12Z" transform="translate(-173.06 -125.1)"/><path class="cls-3" d="M254.32,489.79a76.39,76.39,0,0,0-3.76,8.65c0,.14.16.29.24.14a76.9,76.9,0,0,0,3.95-8.61.23.23,0,0,0-.43-.18Z" transform="translate(-173.06 -125.1)"/><path class="cls-3" d="M252.24,489.09a89,89,0,0,0-4.13,9.7.13.13,0,0,0,.24.1,89.24,89.24,0,0,0,4.26-9.65.2.2,0,0,0-.37-.15Z" transform="translate(-173.06 -125.1)"/><path class="cls-3" d="M248.9,491.5a55.78,55.78,0,0,0-3.57,9.23c0,.18.22.21.29.08a55.86,55.86,0,0,0,3.69-9.14.22.22,0,0,0-.41-.17Z" transform="translate(-173.06 -125.1)"/><path class="cls-3" d="M245.44,494.59a40.08,40.08,0,0,0-2.65,6c0,.13.14.26.22.13a40.32,40.32,0,0,0,2.77-5.94.19.19,0,0,0-.35-.14Z" transform="translate(-173.06 -125.1)"/><path class="cls-3" d="M242.62,496c-.46.85-.93,1.68-1.35,2.55a10.87,10.87,0,0,0-1,2.37c0,.19.23.27.34.14a10.94,10.94,0,0,0,1.21-2.29c.41-.86.77-1.75,1.15-2.63.09-.21-.22-.33-.33-.13Z" transform="translate(-173.06 -125.1)"/><path class="cls-3" d="M238.4,499.13a16.86,16.86,0,0,0-.5,3.16c0,.14.22.15.27,0a16.81,16.81,0,0,0,.65-3.14c0-.27-.37-.32-.42-.05Z" transform="translate(-173.06 -125.1)"/><path class="cls-3" d="M236.1,499.94c-.64,1.43-1.34,2.85-1.86,4.33a.11.11,0,0,0,.2.08c.76-1.38,1.35-2.84,2-4.28.09-.21-.23-.34-.33-.13Z" transform="translate(-173.06 -125.1)"/><path class="cls-3" d="M233.53,499.78c-.62,1.6-1.27,3.19-1.77,4.84a.11.11,0,0,0,.2.08c.74-1.55,1.32-3.17,1.94-4.77a.2.2,0,0,0-.37-.15Z" transform="translate(-173.06 -125.1)"/><path class="cls-3" d="M229.92,502.75a23.23,23.23,0,0,0-2,3.4.15.15,0,0,0,.26.15,23,23,0,0,0,2.13-3.27c.16-.25-.21-.54-.37-.28Z" transform="translate(-173.06 -125.1)"/><path class="cls-3" d="M246.09,412.93a27.1,27.1,0,0,0,3.7,4c.1.07.26,0,.2-.15a27.18,27.18,0,0,0-3.53-4.13c-.2-.22-.57.06-.37.29Z" transform="translate(-173.06 -125.1)"/><path class="cls-3" d="M248.35,411.09a28.85,28.85,0,0,0,1.91,2.46,13.33,13.33,0,0,0,1.85,2.05.15.15,0,0,0,.23-.18,13.33,13.33,0,0,0-1.62-2.24,28.92,28.92,0,0,0-2-2.38.23.23,0,0,0-.37.29Z" transform="translate(-173.06 -125.1)"/><path class="cls-3" d="M251.1,409.76a16.81,16.81,0,0,0,2.53,2.63c.11.08.29,0,.21-.17a16.81,16.81,0,0,0-2.32-2.8c-.23-.26-.65.07-.42.33Z" transform="translate(-173.06 -125.1)"/><path class="cls-3" d="M252.94,408.49a12.17,12.17,0,0,0,1.41,1.78c.11.11.29-.05.23-.18a12.21,12.21,0,0,0-1.16-2c-.21-.32-.71.06-.48.38Z" transform="translate(-173.06 -125.1)"/><path class="cls-3" d="M499.11,388.84a19.24,19.24,0,0,0-1.65,5.4c0,.21.25.25.34.09a19.39,19.39,0,0,0,1.95-5.32c.07-.38-.47-.49-.63-.17Z" transform="translate(-173.06 -125.1)"/><path class="cls-3" d="M502.13,388l-.52,2.23a6.53,6.53,0,0,0-.35,2,.13.13,0,0,0,.23.06,6.11,6.11,0,0,0,.5-1.84l.51-2.39c.05-.24-.32-.28-.37,0Z" transform="translate(-173.06 -125.1)"/><path class="cls-3" d="M505.37,386.47c-.31.8-.61,1.59-.88,2.4a4.66,4.66,0,0,0-.49,2c0,.14.22.25.34.14a4.56,4.56,0,0,0,.81-1.85c.28-.81.52-1.62.75-2.45.1-.35-.4-.58-.54-.22Z" transform="translate(-173.06 -125.1)"/><path class="cls-3" d="M509.2,384.84c-1.05,1.31-2.46,3.86-1.69,5.57a.19.19,0,0,0,.35,0c.31-.78.25-1.68.48-2.49a7.86,7.86,0,0,1,1.39-2.68c.26-.33-.26-.72-.52-.4Z" transform="translate(-173.06 -125.1)"/><path class="cls-3" d="M511.65,384.57a32.54,32.54,0,0,0-1.55,6.38.2.2,0,0,0,.38.1,32.51,32.51,0,0,0,1.77-6.32.32.32,0,0,0-.61-.16Z" transform="translate(-173.06 -125.1)"/><path class="cls-3" d="M548.72,352.24c-.91,2.05-1.36,5.25-1.89,7.72-.76,3.5-1.66,7-2.12,10.54,0,.2.3.3.36.1a118,118,0,0,0,4.23-19.68.16.16,0,0,0-.31-.08l-.51,1.31a.13.13,0,0,0,.24.1Z" transform="translate(-173.06 -125.1)"/><path class="cls-3" d="M548.94,362.27l-.64,2.61a12.12,12.12,0,0,0-.54,2.63.15.15,0,0,0,.29.08,11.47,11.47,0,0,0,.71-2.45l.69-2.8c.08-.32-.43-.39-.51-.07Z" transform="translate(-173.06 -125.1)"/><path class="cls-3" d="M552.64,359.74l-.48,2.76a6.31,6.31,0,0,0-.24,2.46c0,.12.21.21.29.08a5.8,5.8,0,0,0,.51-2.27l.4-3a.25.25,0,0,0-.49-.06Z" transform="translate(-173.06 -125.1)"/><path class="cls-3" d="M554.68,360a31.36,31.36,0,0,0-.75,4.68c0,.15.22.23.27.07a31.62,31.62,0,0,0,1-4.68c.06-.33-.45-.39-.51-.07Z" transform="translate(-173.06 -125.1)"/><path class="cls-3" d="M535.09,312.77c.64,2.36,1,5.11,2.15,7.3a.13.13,0,0,0,.25-.07c-.2-2.45-1.32-5-2-7.34-.06-.21-.44-.11-.38.11Z" transform="translate(-173.06 -125.1)"/><path class="cls-3" d="M538.17,310.33a25.25,25.25,0,0,0,.76,5,.17.17,0,0,0,.31,0,25.24,25.24,0,0,0-.64-5,.22.22,0,0,0-.44.06Z" transform="translate(-173.06 -125.1)"/><path class="cls-3" d="M540.24,307.59A20.2,20.2,0,0,0,541.3,311a.14.14,0,0,0,.27-.08,20.49,20.49,0,0,0-.94-3.46c-.08-.26-.46-.09-.39.17Z" transform="translate(-173.06 -125.1)"/><path class="cls-3" d="M543,308.26l.7.87c.06.08.22,0,.16-.1l-.56-.95c-.13-.22-.46,0-.3.18Z" transform="translate(-173.06 -125.1)"/><path class="cls-3" d="M260.43,458.85c1.83-4.41,3.64-8.84,5.18-13.36a.15.15,0,0,0-.28-.12c-1.93,4.37-3.59,8.86-5.22,13.34a.18.18,0,0,0,.33.13Z" transform="translate(-173.06 -125.1)"/><path class="cls-3" d="M264,455.79a49.55,49.55,0,0,0,2.67-6.41.13.13,0,0,0-.24-.1,49.55,49.55,0,0,0-2.6,6.44.09.09,0,0,0,.17.07Z" transform="translate(-173.06 -125.1)"/><path class="cls-3" d="M268.12,452.29a24.4,24.4,0,0,0,1.6-2.83.15.15,0,0,0-.26-.15,24,24,0,0,0-1.69,2.71c-.14.24.21.51.36.27Z" transform="translate(-173.06 -125.1)"/><path class="cls-3" d="M589.71,261.5a2.41,2.41,0,0,1,2-.56c.51.09,1.05.66,1.55.56a.21.21,0,0,0,.17-.17c.16-.82-1.24-1.11-1.81-1.13a2.76,2.76,0,0,0-2.23,1c-.14.17.11.43.28.28Z" transform="translate(-173.06 -125.1)"/><path class="cls-3" d="M592.13,258.89a2.48,2.48,0,0,0-1.82,1.35.33.33,0,0,0,.47.46,5.07,5.07,0,0,0,1.44-1.65c.23-.4-.38-.65-.65-.37s-.73.79-1.09,1.19.29.84.62.47a1.66,1.66,0,0,1,.61-.5c.07,0,.53,0,.36.2l.71.18a1.29,1.29,0,0,0-.64-1,.71.71,0,0,0-.91.35.9.9,0,0,0,.2,1,1.53,1.53,0,0,0,1.29.27.41.41,0,0,0,.35-.46c-.09-.55-.46-1.32-1.15-1-.45.21-.59.93,0,1a.27.27,0,0,0,.3-.23c0-.06,0,.25,0,.31l.35-.46-.27,0A1.7,1.7,0,0,1,592,260c-.09,0-.09-.05-.1.06a3.28,3.28,0,0,0,.11.31.4.4,0,0,0,.71.18.93.93,0,0,0-.38-1.39c-.73-.37-1.39.23-1.85.74l.62.47c.36-.4.72-.8,1.07-1.21l-.65-.37a4.25,4.25,0,0,1-1.15,1.41l.51.39a8.75,8.75,0,0,1,1.38-1.45c.09-.1,0-.23-.13-.22Z" transform="translate(-173.06 -125.1)"/><path class="cls-3" d="M607.29,295.77c-.24.65-.09,1.39-.3,2.08a5.13,5.13,0,0,1-1.29,2.1c-.32.31.11.87.44.55A5.92,5.92,0,0,0,608,296c0-.48-.76-.37-.74.1a10.13,10.13,0,0,1-.4,2.71c0,.18.21.25.31.13A4.38,4.38,0,0,0,608,296l-.74.1A4.91,4.91,0,0,1,605.7,300l.44.55a5.18,5.18,0,0,0,1.48-2.4,3.1,3.1,0,0,0,0-2.38.18.18,0,0,0-.3,0Z" transform="translate(-173.06 -125.1)"/><path class="cls-3" d="M599.58,280.44c3,5.19,6.43,10.2,9.74,15.21.22.34.72-.05.5-.39-3.26-5-6.47-10.12-10-15-.09-.13-.32,0-.24.14Z" transform="translate(-173.06 -125.1)"/><path class="cls-3" d="M604.18,288.32c1.31,2.14,2.51,4.69,4.23,6.53.21.22.62,0,.48-.29-1-2.31-2.95-4.42-4.44-6.46-.14-.19-.39,0-.28.22Z" transform="translate(-173.06 -125.1)"/><path class="cls-3" d="M599.15,280.26c.38.88.74,1.76,1.14,2.63a.25.25,0,0,0,.47-.13,4.27,4.27,0,0,0-1.17-2.39c-.09-.09-.29,0-.21.13a13.07,13.07,0,0,0,.74,1.38c.05.07.14,0,.12-.07a13,13,0,0,0-.63-1.41l-.21.13a5.3,5.3,0,0,1,.89,2.3l.47-.13c-.44-.85-.91-1.69-1.37-2.53-.07-.13-.28,0-.22.09Z" transform="translate(-173.06 -125.1)"/><path class="cls-3" d="M598.38,281.69c-1-6.92-3.09-14.29-5-21,0-.17-.31-.08-.29.08.71,6.8,2.27,14.73,5.08,21a.12.12,0,0,0,.22-.06Z" transform="translate(-173.06 -125.1)"/><path class="cls-3" d="M528.12,283.1a3.18,3.18,0,0,0-1.2,2.68,2,2,0,0,0,1.69,1.78v-.85a1.63,1.63,0,0,1-1.32-2.62c.24-.34-.27-.73-.52-.39a3.19,3.19,0,0,0-.11,3.59l.55-.43a2.59,2.59,0,0,1-.66-1.5c-.05-.46-.75-.36-.71.1.07.73.14,1.45.22,2.17l.7-.1a2.15,2.15,0,0,0-.6-1.13.34.34,0,0,0-.58.35,1.91,1.91,0,0,0,.42.74.15.15,0,0,0,.27-.07,1.9,1.9,0,0,0,0-.85l-.61.26a1.52,1.52,0,0,1,.44.8.35.35,0,0,0,.7-.1c-.07-.73-.13-1.45-.21-2.18l-.71.1a3.25,3.25,0,0,0,.83,1.83.35.35,0,0,0,.55-.43,2.49,2.49,0,0,1,.08-2.77l-.52-.39a2.42,2.42,0,0,0,1.84,3.86.43.43,0,0,0,.11-.85c-1.67-.35-.91-2.39-.26-3.26.16-.22-.14-.54-.35-.34Z" transform="translate(-173.06 -125.1)"/><path class="cls-3" d="M521.8,291a185.8,185.8,0,0,0,2.78,26,.3.3,0,0,0,.6-.08,185.31,185.31,0,0,0-3.06-26,.16.16,0,0,0-.33,0Z" transform="translate(-173.06 -125.1)"/><path class="cls-3" d="M554.39,298.87a.61.61,0,0,0,.14,1.14c.9.22,1-.94.91-1.53a.35.35,0,0,0-.7,0,5.07,5.07,0,0,0-.23,2.44.25.25,0,0,0,.42.05,5.14,5.14,0,0,0,.5-2.4h-.7a1.72,1.72,0,0,1,.1.46l-.11.33a.11.11,0,0,1-.12,0c.3-.18.11-.68-.22-.52Z" transform="translate(-173.06 -125.1)"/><path class="cls-3" d="M236.72,421.08a5.79,5.79,0,0,0-1.1,6.11c.07.14.33.14.34,0a14.29,14.29,0,0,1,1-5.94c.06-.14-.13-.23-.22-.13Z" transform="translate(-173.06 -125.1)"/><path class="cls-3" d="M234.57,422.54a3.57,3.57,0,0,0,0,1.54,5.25,5.25,0,0,0,.36,1.69.15.15,0,0,0,.29,0,5.3,5.3,0,0,0,0-1.74,3.52,3.52,0,0,0-.35-1.49.17.17,0,0,0-.28,0Z" transform="translate(-173.06 -125.1)"/><path class="cls-3" d="M234.57,422.47a6.8,6.8,0,0,0,.11,2.64,17.61,17.61,0,0,0,.6,3,.13.13,0,0,0,.25,0,17.62,17.62,0,0,0-.24-3.06,6.8,6.8,0,0,0-.62-2.56.06.06,0,0,0-.1,0Z" transform="translate(-173.06 -125.1)"/><path class="cls-3" d="M239.9,418.84c-4.84,2-4.62,9.3-3.09,13.35,0,.1.22.09.22,0,.07-5.15-1.11-9.06,3-13.08a.14.14,0,0,0-.14-.24Z" transform="translate(-173.06 -125.1)"/><path class="cls-3" d="M235.57,422.51a11,11,0,0,0,.2,5.75c0,.18.37.23.37,0,0-.89,0-1.79-.07-2.68a15.84,15.84,0,0,0-.19-3c0-.14-.26-.21-.31,0Z" transform="translate(-173.06 -125.1)"/><path class="cls-3" d="M243.21,476.29c-1,1.23.84,2.88,2,3.15,1.44.35,3.79-.35,4.37-1.84a.2.2,0,0,0-.26-.26c-1.19.47-1.85,1.52-3.28,1.53a2.55,2.55,0,0,1-2.11-.95c-.37-.5-.32-1.07-.54-1.62a.07.07,0,0,0-.12,0Z" transform="translate(-173.06 -125.1)"/><path class="cls-3" d="M242.94,478.5a2.17,2.17,0,0,0,1.34,1.65c.57.26,1.73.51,2.21,0a.35.35,0,0,0,0-.48c-.22-.24-.64,0-.89,0a2.3,2.3,0,0,1-2.38-1.3c-.1-.17-.35,0-.33.14Z" transform="translate(-173.06 -125.1)"/><path class="cls-3" d="M243.46,478.5a3.38,3.38,0,0,0,2.1,1.74.41.41,0,0,0,.31-.76c-.72-.4-1.44-.79-2.17-1.17-.32-.17-.7.24-.55.56a4.68,4.68,0,0,0,1.67,1.89c.43.28.9-.33.48-.64a1,1,0,0,0-1.54.92.39.39,0,0,0,.54.3,1.12,1.12,0,0,0,.59-1.52.39.39,0,0,0-.66-.08,1.86,1.86,0,0,0-.35,1.52.38.38,0,0,0,.61.25c.57-.52,1.21-1.62.2-2.11s-1.25.82-1,1.48a.38.38,0,0,0,.39.22l-.15-.11a.33.33,0,0,0,.65-.09.52.52,0,0,0-.51-.53l.32.32c0-.09,0-.18,0-.26s0-.5.07-.2-.2.52-.4.71l.61.25a1.12,1.12,0,0,1,.21-1l-.66-.08a.35.35,0,0,1-.19.5l.54.3.29-.18.48-.64a3.87,3.87,0,0,1-1.38-1.58l-.55.56c.72.39,1.44.78,2.17,1.15l.21-.79a3.43,3.43,0,0,1-1.85-1.22c-.18-.23-.61,0-.46.27Z" transform="translate(-173.06 -125.1)"/><path class="cls-3" d="M243.77,479.43c-.36.48-.83,1.51-.22,2a.14.14,0,0,0,.21-.06,1.61,1.61,0,0,0,.12-.69,2,2,0,0,1,.29-.94c.16-.27-.2-.56-.39-.3Z" transform="translate(-173.06 -125.1)"/><path class="cls-3" d="M242.74,479.06a5.62,5.62,0,0,0-.16,3.06l.67-.19a1.48,1.48,0,0,0-.45-.74.17.17,0,0,0-.25.07,1.44,1.44,0,0,0,0,.86c.1.44.8.34.7-.1a12,12,0,0,1-.2-2.87c0-.18-.26-.29-.34-.09Z" transform="translate(-173.06 -125.1)"/><path class="cls-3" d="M241,470.79a36.32,36.32,0,0,0,1.21,12.47.16.16,0,0,0,.32,0c-.42-4.11-.82-8.34-1.42-12.43a.06.06,0,0,0-.12,0Z" transform="translate(-173.06 -125.1)"/><path class="cls-3" d="M259.75,490a1.84,1.84,0,0,0,2.48-.43,3.17,3.17,0,0,0,.73-1.53,2.14,2.14,0,0,0-.18-1.79.19.19,0,0,0-.3,0c-.51.58-.24,1.69-.5,2.41a1.76,1.76,0,0,1-2.15,1.15c-.11,0-.15.13-.08.19Z" transform="translate(-173.06 -125.1)"/><path class="cls-3" d="M262.45,486.36a2.94,2.94,0,0,1-1.55,4.23c-.34.13-.11.65.22.52a3.3,3.3,0,0,0,1.61-4.91c-.1-.16-.37,0-.28.17Z" transform="translate(-173.06 -125.1)"/><path class="cls-3" d="M259.23,489.67a2.54,2.54,0,0,0,3-.16c.68-.54,1.35-1.76.82-2.57a.21.21,0,0,0-.36.05c-.3.65-.21,1.3-.74,1.88a2.52,2.52,0,0,1-2.59.59c-.12,0-.24.13-.12.2Z" transform="translate(-173.06 -125.1)"/><path class="cls-3" d="M262.56,490.7c.23-.67.43-1.33.6-2l-.63-.08a2.05,2.05,0,0,0,.15.95.17.17,0,0,0,.3,0,1.91,1.91,0,0,0,.17-.86.32.32,0,0,0-.63-.08c-.17.66-.31,1.31-.42,2a.24.24,0,0,0,.45.12Z" transform="translate(-173.06 -125.1)"/><path class="cls-3" d="M260,491.69a2.06,2.06,0,0,1,.74,1.73c-.07.64-.34,1.42-1,1.61l.08.19c1.13-.72,2.27-2.16,1.48-3.52-.21-.36-.81-.13-.61.26a2.27,2.27,0,0,1-.08,2.23l.58.24a9.13,9.13,0,0,0,.89-2.81h-.66A8.08,8.08,0,0,1,261,494c0,.09.09.19.18.13a2.43,2.43,0,0,0,.85-2.6.33.33,0,0,0-.66,0,6.56,6.56,0,0,1-.81,2.66c-.18.31.35.61.54.31a2.7,2.7,0,0,0,.15-2.8l-.61.26c.73,1.22-.33,2.2-1,3.11-.06.08,0,.22.13.16.73-.4,1.53-.81,1.63-1.73a2.18,2.18,0,0,0-1.17-2.18c-.23-.12-.37.21-.21.36Z" transform="translate(-173.06 -125.1)"/><path class="cls-3" d="M263.9,489.56a3.15,3.15,0,0,0-.22,1.28,7,7,0,0,1-.59,1.94,10.3,10.3,0,0,1-2.75,3.13c-.06.06,0,.19.07.17a4.92,4.92,0,0,0,3-2.64c.5-.91,1.31-3,.53-3.88a0,0,0,0,0-.06,0Z" transform="translate(-173.06 -125.1)"/><path class="cls-3" d="M192.34,531.62a7.71,7.71,0,0,0,.14,1.62,1.74,1.74,0,0,0,.55,1.19.13.13,0,0,0,.21-.09,2.37,2.37,0,0,0-.28-1.14,7.24,7.24,0,0,1-.33-1.59c0-.15-.28-.16-.28,0Z" transform="translate(-173.06 -125.1)"/><path class="cls-3" d="M192.28,532.17c.05.51.09,1,.16,1.53a1.53,1.53,0,0,0,.35,1,.13.13,0,0,0,.2-.05,1.63,1.63,0,0,0-.08-1.12c-.12-.47-.26-.93-.39-1.4a.12.12,0,0,0-.23,0Z" transform="translate(-173.06 -125.1)"/><path class="cls-3" d="M192.15,532.44l.22,1.24a1.93,1.93,0,0,0,.28.9.13.13,0,0,0,.23-.06,2.11,2.11,0,0,0-.11-1l-.25-1.14c-.05-.23-.41-.19-.37.05Z" transform="translate(-173.06 -125.1)"/><path class="cls-3" d="M192.22,526.36a2.39,2.39,0,0,0,1.24,3.11c1.1.4,2.85-.17,2.87-1.52,0-.11-.13-.22-.23-.13a2.64,2.64,0,0,1-2.19,1,1.87,1.87,0,0,1-1.4-2.36c.05-.18-.21-.3-.28-.12Z" transform="translate(-173.06 -125.1)"/><path class="cls-3" d="M192.37,528.62c.24.95.47,1.9.74,2.84.09.32.63.17.57-.16-.16-.83-.32-1.66-.48-2.49l-.63.09c.2,1,.4,1.91.61,2.87.07.3.58.46.68.09a3.07,3.07,0,0,0-.17-2.18c-.14-.3-.67-.28-.68.1a1.88,1.88,0,0,0,.47,1.38.36.36,0,0,0,.51.06,1.49,1.49,0,0,0,.39-1.72.37.37,0,0,0-.62-.07c-.36.55.13,1.46.84,1.16s.39-1.27-.25-1.35a.31.31,0,0,0-.35.27,1,1,0,0,0,0,.4.21.21,0,0,0,.38.1,1,1,0,0,0,.2-.34l-.4.17.15,0-.62-.07a.75.75,0,0,1-.17.86l.51.06a1.18,1.18,0,0,1-.32-.84l-.68.1a2.36,2.36,0,0,1,.15,1.72h.7c-.22-1-.45-1.91-.68-2.86-.09-.39-.72-.32-.63.09.18.83.35,1.65.52,2.48l.57-.16c-.28-.91-.61-1.81-.93-2.71-.07-.2-.41-.11-.36.1Z" transform="translate(-173.06 -125.1)"/><path class="cls-3" d="M173.22,483.91c1.23,1.84,2.7,3.54,4.1,5.26a30.57,30.57,0,0,0,3.83,4.46.15.15,0,0,0,.23-.18,30.57,30.57,0,0,0-3.53-4.69c-1.38-1.73-2.72-3.53-4.26-5.13a.23.23,0,0,0-.37.29Z" transform="translate(-173.06 -125.1)"/><path class="cls-3" d="M176.71,480.72c-1.41,2.18-1.06,6.81,1.56,8a.13.13,0,0,0,.17-.17c-.54-1.28-1.44-2.25-1.71-3.68a9.86,9.86,0,0,1,.28-4.06.17.17,0,0,0-.29-.12Z" transform="translate(-173.06 -125.1)"/><path class="cls-3" d="M175.58,481.76a7,7,0,0,0,0,3.32c.07.35.64.4.67,0a4.85,4.85,0,0,0-.55-2.63.35.35,0,0,0-.67.19c0,.55.06,1.11.08,1.66l.68-.29a2.74,2.74,0,0,1-.58-1l-.67.28.68,1.13c.21.35.83,0,.62-.37l-.66-1.14c-.19-.33-.83-.25-.72.2a3.42,3.42,0,0,0,.72,1.42.39.39,0,0,0,.68-.29c-.05-.55-.1-1.1-.15-1.65l-.67.19a4.28,4.28,0,0,1,.53,2.26h.67a14.83,14.83,0,0,1-.28-3.19.19.19,0,0,0-.36,0Z" transform="translate(-173.06 -125.1)"/><path class="cls-3" d="M338.13,153.64l-.48-.85a10.19,10.19,0,0,1-.92-2.7,10.84,10.84,0,0,1,.12-4.61,14.68,14.68,0,0,1,2.75-5.63,18.37,18.37,0,0,1,6-5,15,15,0,0,1,9.07-1.75,12.07,12.07,0,0,1,2.52.65,15.5,15.5,0,0,1,2.36,1.07l1.2.68,1.1.82a18.21,18.21,0,0,1,2.09,1.87,20.33,20.33,0,0,1,3.3,4.75,23.69,23.69,0,0,1,2.06,5.68,27.92,27.92,0,0,1,.68,6.27,27.35,27.35,0,0,1-.94,6.5c-.14.54-.36,1.07-.53,1.6l-.28.8-.35.78c-.24.5-.43,1-.7,1.51l-.83,1.53a36,36,0,0,1-4.14,5.62c-6.39,7-15.46,11.73-25.1,14.67s-19.86,4.82-29.56,8.26a58.65,58.65,0,0,0-13.77,6.9,34.81,34.81,0,0,0-10.5,11c-.34.54-.6,1.11-.9,1.67l-.22.42-.15.37-.37.93c-.23.61-.53,1.24-.71,1.84l-.45,1.76-.23.88-.12.93-.25,1.87c-.05.63,0,1.26,0,1.89a13.21,13.21,0,0,0,0,1.89,31.29,31.29,0,0,0,4.57,14.23A29.7,29.7,0,0,0,295,252.85c.54.28,1.1.51,1.65.77a11.74,11.74,0,0,0,1.67.7l1.72.53.43.13.21.07s.16,0,0,0l.12,0,.94.16,1.87.32c.61.09,1.17.06,1.75.1s1.15.09,1.74,0l1.78-.14.89-.07.87-.17,1.74-.34c1.15-.26,2.26-.68,3.38-1,1.07-.49,2.17-.89,3.2-1.44l1.53-.84.76-.42.72-.49a31.29,31.29,0,0,0,9.41-9.62,25.6,25.6,0,0,0,3.89-12.07c0-.24.07-.55.06-.74v-.8a14.31,14.31,0,0,0-.07-1.56l-.15-1.48-.27-1.49a25.33,25.33,0,0,0-1.83-5.6c-3.2-7-9.4-12-15.67-12.76a16.54,16.54,0,0,0-8.64,1.22,19.19,19.19,0,0,0-6.23,4.23,15.7,15.7,0,0,0-4.69,9.37l-.06,1.64c0,.47.09.87.12,1.19l.11,1-.16-1c0-.32-.14-.71-.17-1.19s0-1,0-1.66.18-1.32.27-2.08l.33-1.17a7.08,7.08,0,0,1,.43-1.25,16.77,16.77,0,0,1,3.4-5.26,19.89,19.89,0,0,1,6.32-4.58,19.17,19.17,0,0,1,4.26-1.36,13.91,13.91,0,0,1,2.38-.28l1.25,0,1.2.11a18.87,18.87,0,0,1,5,1.26,22.17,22.17,0,0,1,2.42,1.21l1.19.71,1.13.83a10.1,10.1,0,0,1,1.1.89c.35.32.72.63,1.06,1a26.37,26.37,0,0,1,1.94,2.18,25.8,25.8,0,0,1,3.21,5.11,27.08,27.08,0,0,1,2.07,5.95l.32,1.59.2,1.66a15.57,15.57,0,0,1,.1,1.62l0,.8a8.48,8.48,0,0,1,0,.87,27.66,27.66,0,0,1-3.94,13.11,33.6,33.6,0,0,1-9.91,10.53l-.76.54-.81.47-1.63.94c-1.11.6-2.3,1.05-3.46,1.59-1.22.38-2.42.84-3.68,1.14l-1.9.39c-.32.06-.64.14-1,.19l-1,.09-2,.17c-.65.06-1.35,0-2,0s-1.38,0-2-.11l-1.87-.3-.94-.15-.12,0-.21-.05-.24-.07-.48-.14-1.93-.58a13.8,13.8,0,0,1-1.87-.76c-.61-.28-1.24-.53-1.84-.84a31.88,31.88,0,0,1-11.7-11.12,34.21,34.21,0,0,1-5.05-15.58,15.38,15.38,0,0,1,0-2.09c0-.7,0-1.4.05-2.09l.27-2.09.14-1,.26-1.05.55-2.1c.21-.67.48-1.25.72-1.88l.37-.93.09-.23,0-.12s.08-.19.09-.21l.24-.47c.33-.61.62-1.26,1-1.85a37.76,37.76,0,0,1,11.41-11.87,61.55,61.55,0,0,1,14.46-7.2c10.09-3.55,20.34-5.15,29.77-8.05a69.92,69.92,0,0,0,13.35-5.43,43.63,43.63,0,0,0,10.92-8.19,33.94,33.94,0,0,0,4-5.18l.78-1.37c.26-.45.48-1,.72-1.47l.34-.71.27-.73c.17-.49.38-1,.52-1.46a25.51,25.51,0,0,0,1-6,26.19,26.19,0,0,0-.52-5.87,21.5,21.5,0,0,0-4.78-9.82,16.83,16.83,0,0,0-1.87-1.78l-1-.79-1-.64a14.45,14.45,0,0,0-2.24-1.1,11,11,0,0,0-2.23-.65,14.05,14.05,0,0,0-8.52,1.39,17.67,17.67,0,0,0-5.89,4.66,14.8,14.8,0,0,0-2.86,5.36,10.59,10.59,0,0,0-.31,4.5,10.08,10.08,0,0,0,.8,2.71Z" transform="translate(-173.06 -125.1)"/><path class="cls-3" d="M361.93,226.32l1,1.05a9.91,9.91,0,0,0,1.28,1.17,14.75,14.75,0,0,0,2,1.35,17.44,17.44,0,0,0,6.25,2,20,20,0,0,0,8.79-.9,18.54,18.54,0,0,0,4.63-2.42,9.84,9.84,0,0,0,1.07-.87,7.9,7.9,0,0,0,1-1c.31-.35.66-.72.95-1.06l.87-1.24a19.29,19.29,0,0,0,2.83-12.29,21.66,21.66,0,0,0-5.84-13l-.68-.68-.17-.17-.17-.14-.39-.32a15.62,15.62,0,0,0-1.56-1.21l-.79-.55c-.27-.18-.57-.33-.85-.5l-.86-.5-.91-.43a25.24,25.24,0,0,0-7.9-2.18,27.08,27.08,0,0,0-16.8,3.7,31.2,31.2,0,0,0-7,5.88,36.08,36.08,0,0,0-5.28,7.9,37.41,37.41,0,0,0-1.85,4.5c-.29.76-.48,1.56-.72,2.35l-.29,1.2-.14.6s0,.16,0,.09l0,.16,0,.32-.38,2.53c-.05.42-.15.86-.17,1.26l0,1.23-.09,2.46.18,2.52a42.63,42.63,0,0,0,6.67,19.38,24.79,24.79,0,0,0,1.51,2.17c.54.7,1,1.46,1.61,2.11a41.53,41.53,0,0,0,3.65,3.88l1,.92a8.53,8.53,0,0,0,1,.88l2.12,1.66.53.41.57.36,1.14.72a20.93,20.93,0,0,0,2.32,1.38l2.42,1.21c.8.41,1.68.65,2.52,1a37.74,37.74,0,0,0,5.21,1.51l.16,0,.11,0,.35.05.7.1,1.4.21a22.84,22.84,0,0,0,2.74.26,44.45,44.45,0,0,0,5.48,0,60.57,60.57,0,0,0,21.51-5.87,91.8,91.8,0,0,0,10-5.41c3.24-2,6.42-4.13,9.48-6.42,12.36-9,23.91-19.61,37.5-27.05a76.12,76.12,0,0,1,10.48-4.84l1.35-.51.39-.14.34-.1.67-.2c.9-.27,1.78-.56,2.71-.81A56.31,56.31,0,0,1,483,215a27.07,27.07,0,0,1,2.84-.34c.95-.07,1.9-.17,2.84-.21a56.08,56.08,0,0,1,5.67.09,54.47,54.47,0,0,1,5.6.65,49.58,49.58,0,0,1,5.44,1.34,44.45,44.45,0,0,1,5.22,2l2.47,1.27.62.32.58.38,1.16.76,1.16.75c.38.26.72.57,1.08.86.7.59,1.45,1.14,2.11,1.77l1.91,2a7.9,7.9,0,0,1,.87,1l.82,1.09.82,1.09c.25.38.46.78.69,1.17.45.8.9,1.52,1.34,2.39s.72,1.52,1,2.42l.46,1.29.36,1.29a29.26,29.26,0,0,1,.85,10.39,27.16,27.16,0,0,1-8.5,17.67A26.67,26.67,0,0,1,503.32,273a24,24,0,0,1-8.64-1.4c-.66-.28-1.34-.51-2-.82s-1.25-.61-1.89-1-1.13-.71-1.68-1.13-1.11-.87-1.61-1.34a23.88,23.88,0,0,1-7.24-13.3,21.93,21.93,0,0,1-.2-7,21.15,21.15,0,0,1,1.86-6.2,20.25,20.25,0,0,1,3.49-4.83,20.89,20.89,0,0,1,4.28-3.3,21.79,21.79,0,0,1,8.58-2.9,20.23,20.23,0,0,1,6.67.35,14.54,14.54,0,0,1,2.3.7,10.24,10.24,0,0,1,1.6.69l1.25.66-1.27-.63a10.19,10.19,0,0,0-1.61-.64,14.42,14.42,0,0,0-2.3-.63,20,20,0,0,0-6.59-.15,21.93,21.93,0,0,0-8.32,3,20.25,20.25,0,0,0-4.08,3.28,19.42,19.42,0,0,0-3.24,4.7,20.25,20.25,0,0,0-1.64,6,20.89,20.89,0,0,0,.34,6.63,22.61,22.61,0,0,0,7.11,12.44c.48.42,1,.78,1.48,1.18s1.12.72,1.68,1.09,1.15.59,1.72.89,1.23.49,1.85.74a22.41,22.41,0,0,0,8.08,1.2,25.23,25.23,0,0,0,8.35-1.71A24.22,24.22,0,0,0,519.1,265a25.07,25.07,0,0,0,7.68-16.49,27,27,0,0,0-.91-9.59l-.34-1.18-.42-1.12c-.24-.74-.67-1.54-1-2.32s-.83-1.41-1.23-2.11c-.22-.35-.41-.72-.64-1.06l-.77-1a28,28,0,0,0-7.39-6.84l-1.08-.7-.54-.35-.58-.29-2.31-1.18a41.92,41.92,0,0,0-4.91-1.81,47,47,0,0,0-5.14-1.25,51.8,51.8,0,0,0-5.31-.59,53.45,53.45,0,0,0-5.39-.07c-.9,0-1.8.14-2.7.21a25.06,25.06,0,0,0-2.7.34c-1.81.23-3.55.67-5.3,1.07-.89.24-1.79.54-2.69.81l-.67.21-.34.1-.27.11-1.29.49a73.35,73.35,0,0,0-10.1,4.72c-13.16,7.27-24.58,17.78-37.07,27-3.14,2.31-6.39,4.48-9.72,6.52a94.69,94.69,0,0,1-10.34,5.52,63.39,63.39,0,0,1-22.56,6,47,47,0,0,1-5.89-.05,25.9,25.9,0,0,1-2.91-.29l-1.4-.21-.7-.11-.35-.05-.23,0-.18,0a40.45,40.45,0,0,1-5.6-1.64c-.9-.36-1.84-.64-2.7-1.08l-2.58-1.31a23.05,23.05,0,0,1-2.47-1.48l-1.21-.78-.6-.39-.56-.44-2.24-1.77a9.52,9.52,0,0,1-1.07-.94l-1-1a44.13,44.13,0,0,1-3.85-4.14c-.64-.69-1.12-1.5-1.69-2.24a26.9,26.9,0,0,1-1.59-2.3,44.2,44.2,0,0,1-6.93-20.59l-.15-2.68.14-2.71.07-1.35c0-.45.13-.85.19-1.28l.41-2.53a34.24,34.24,0,0,1,1.4-5.08,39.64,39.64,0,0,1,2-4.74,38.19,38.19,0,0,1,5.71-8.3,33.07,33.07,0,0,1,7.62-6.19,28.9,28.9,0,0,1,17.93-3.69,26.86,26.86,0,0,1,8.38,2.44l1,.47.92.54c.3.18.61.35.91.55l.87.62a15.35,15.35,0,0,1,1.61,1.29l.38.33.21.19.18.19.71.74a22.92,22.92,0,0,1,5.9,13.93,20.23,20.23,0,0,1-3.27,12.86l-.9,1.22c-.36.42-.7.75-1,1.13a8.48,8.48,0,0,1-1.09,1,10.44,10.44,0,0,1-1.14.89,19.18,19.18,0,0,1-4.85,2.4,19.93,19.93,0,0,1-9,.7A17.69,17.69,0,0,1,366,230a14.85,14.85,0,0,1-1.94-1.42,10,10,0,0,1-1.25-1.21Z" transform="translate(-173.06 -125.1)"/><path class="cls-3" d="M391.8,242.39l1.18-.51c.76-.34,1.92-.78,3.3-1.5.69-.35,1.47-.7,2.29-1.16l2.63-1.48,2.89-1.84,3.09-2.2a71.71,71.71,0,0,0,6.39-5.6,66.55,66.55,0,0,0,6.21-7.11,69.25,69.25,0,0,0,5.38-8.5,58.79,58.79,0,0,0,6.22-19.67,69.89,69.89,0,0,0,.49-10,66.78,66.78,0,0,0-1-9.39,72,72,0,0,0-2-8.25l-1.26-3.57-1.3-3.17-1.3-2.73c-.41-.84-.85-1.58-1.21-2.27-.72-1.38-1.4-2.4-1.83-3.12l-.67-1.09.8,1c.51.67,1.35,1.58,2.2,2.9.44.65,1,1.35,1.46,2.16l1.57,2.64,1.61,3.11c.53,1.12,1,2.32,1.55,3.57s1,2.59,1.41,4,.87,2.86,1.17,4.38a58.09,58.09,0,0,1,1.44,9.71,62.84,62.84,0,0,1-.25,10.53,55.88,55.88,0,0,1-6.54,20.68,63.33,63.33,0,0,1-5.85,8.76,58.24,58.24,0,0,1-6.76,7.12c-1.13,1.07-2.34,2-3.48,2.91s-2.35,1.67-3.45,2.46-2.25,1.41-3.32,2l-3.1,1.62-2.8,1.26c-.87.37-1.71.65-2.44.93-1.46.59-2.66.85-3.46,1.1Z" transform="translate(-173.06 -125.1)"/><path class="cls-3" d="M430.41,203.74l.61-1.83c.42-1.19,1-2.95,1.94-5.12a73.39,73.39,0,0,1,3.74-7.67,52.43,52.43,0,0,1,6.41-9.1,42.55,42.55,0,0,1,10.19-8.5,34.08,34.08,0,0,1,14.18-4.79,29,29,0,0,1,15.79,3,25.9,25.9,0,0,1,6.79,5,23.31,23.31,0,0,1,2.66,3.39l.54.85.52,1a19.23,19.23,0,0,1,.89,2,22.47,22.47,0,0,1,1.46,8.43,20.89,20.89,0,0,1-1.79,8.33,17.71,17.71,0,0,1-5.11,6.68,18.13,18.13,0,0,1-7.5,3.49,17.1,17.1,0,0,1-7.94-.19,14.12,14.12,0,0,1-6.6-3.86,15,15,0,0,1-3.75-12.93,11.84,11.84,0,0,1,2.65-5.57l1-1c.39-.3.78-.61,1.16-.88l1.18-.68,1.21-.51a13.13,13.13,0,0,1,4.69-.73,12.19,12.19,0,0,1,3.92.71,9.89,9.89,0,0,1,4.52,3.11,6.8,6.8,0,0,1,.82,1.19l.25.42-.29-.4a6.71,6.71,0,0,0-.9-1.11,10,10,0,0,0-4.57-2.67,12.23,12.23,0,0,0-8,.5l-1.06.53-1,.67-.91.77-.9,1a10.67,10.67,0,0,0-2,4.88,13.27,13.27,0,0,0,3.64,11.06c3,3,7.86,4.08,12.38,3a17.09,17.09,0,0,0,3.31-1.16,15.28,15.28,0,0,0,2.94-1.87,15.57,15.57,0,0,0,4.28-5.74,18,18,0,0,0,1.49-7.19,19.62,19.62,0,0,0-1.31-7.33,16.38,16.38,0,0,0-.74-1.68l-.4-.8-.53-.85a20.41,20.41,0,0,0-2.28-2.94,23,23,0,0,0-6-4.47,26.88,26.88,0,0,0-14.3-2.92,33.08,33.08,0,0,0-13.24,4.09,43.2,43.2,0,0,0-10,7.73,58.22,58.22,0,0,0-6.72,8.52,72.57,72.57,0,0,0-4.16,7.33c-1,2.1-1.81,3.78-2.32,4.93Z" transform="translate(-173.06 -125.1)"/><path class="cls-3" d="M401.37,244.13s.9-.48,2.5-1.29c.81-.38,1.76-.92,2.83-1.52l1.7-1,1.85-1.14c.64-.4,1.32-.79,2-1.25l2.07-1.42c.72-.47,1.43-1,2.14-1.56s1.47-1.08,2.2-1.67c1.44-1.2,2.93-2.43,4.36-3.77s2.84-2.75,4.25-4.16,2.72-2.92,3.91-4.48,2.4-3.07,3.52-4.57c.54-.76,1-1.55,1.54-2.29s1-1.48,1.43-2.22l1.3-2.15c.42-.69.77-1.4,1.14-2.06l1-1.91L442,204c.54-1.11,1-2.08,1.35-2.9.71-1.63,1.14-2.57,1.14-2.57s-.19,1-.58,2.76c-.1.44-.2.93-.34,1.45l-.51,1.68-.59,1.91c-.23.67-.52,1.35-.8,2.07s-.56,1.48-.91,2.24l-1.13,2.33c-.37.81-.81,1.61-1.28,2.42s-.94,1.64-1.45,2.47c-1.09,1.61-2.13,3.34-3.45,4.91s-2.63,3.17-4,4.74-2.93,3-4.5,4.26-3.16,2.54-4.71,3.72c-.79.56-1.6,1.08-2.38,1.59s-1.56,1-2.34,1.42l-2.26,1.26c-.74.39-1.49.7-2.19,1s-1.37.65-2,.92l-1.88.7-1.65.61c-.51.17-1,.29-1.42.42C402.36,243.88,401.37,244.13,401.37,244.13Z" transform="translate(-173.06 -125.1)"/><path class="cls-3" d="M414.89,266.72s2.63-2.42,6.79-5.74c1-.83,2.17-1.73,3.38-2.65s2.48-1.91,3.82-2.89,2.71-2,4.14-3l4.32-3,4.37-3c1.43-1,2.89-1.89,4.28-2.8,2.79-1.8,5.43-3.43,7.72-4.78,4.57-2.72,7.77-4.32,7.77-4.32s-2.63,2.43-6.79,5.74c-2.07,1.67-4.53,3.56-7.2,5.53-1.34,1-2.7,2-4.14,3l-4.32,3-4.38,3c-1.44,1-2.9,1.89-4.28,2.8s-2.76,1.75-4.05,2.55-2.53,1.55-3.67,2.22C418.09,265.12,414.89,266.72,414.89,266.72Z" transform="translate(-173.06 -125.1)"/><path class="cls-3" d="M274.41,243.54l-.41-.8a24,24,0,0,1-1.11-2.29c-.21-.51-.47-1.07-.7-1.7l-.7-2-.65-2.38c-.2-.85-.35-1.75-.54-2.69a40,40,0,0,1-.5-6.16,39.4,39.4,0,0,1,.52-6.91,43.15,43.15,0,0,1,1.85-7.21,38.27,38.27,0,0,1,7.93-13.14,42.72,42.72,0,0,1,5.51-5,39.26,39.26,0,0,1,5.87-3.69c1-.53,2-.95,2.89-1.37s1.9-.72,2.79-1.06,1.79-.56,2.63-.78l2.41-.53,2.13-.34c.66-.09,1.27-.12,1.82-.17a24.1,24.1,0,0,1,2.55-.09h.9l-.89.17c-.58.12-1.42.24-2.48.52-.53.13-1.11.25-1.74.43l-2,.6-2.25.8-2.44,1a52.16,52.16,0,0,0-5.21,2.77,47.82,47.82,0,0,0-5.33,3.8,49.61,49.61,0,0,0-5,4.86,41.13,41.13,0,0,0-7.37,12.21,48.9,48.9,0,0,0-2,6.68,47.56,47.56,0,0,0-.88,6.49,51.88,51.88,0,0,0,0,5.9l.25,2.63.34,2.36.41,2.07c.13.64.3,1.21.43,1.74.25,1.06.54,1.88.7,2.44Z" transform="translate(-173.06 -125.1)"/><path class="cls-3" d="M357.08,261.73l-1.27-.5a22,22,0,0,0-3.7-1,21.73,21.73,0,0,0-5.86-.17,22,22,0,0,0-7.2,2.06,18.23,18.23,0,0,0-3.57,2.26,21.57,21.57,0,0,0-1.65,1.47,18.55,18.55,0,0,0-1.49,1.75,17.37,17.37,0,0,0-2.32,4.07,20,20,0,0,0-1.33,4.73,18.92,18.92,0,0,0,1.13,10,16.75,16.75,0,0,0,6.61,7.84,15.62,15.62,0,0,0,4.75,2.06,14.63,14.63,0,0,0,2.48.39c.45,0,1,0,1.35,0l.6,0,.63-.08a14.3,14.3,0,0,0,8.69-4.48,12.18,12.18,0,0,0,1.42-1.92l.28-.52c0-.06.12-.22.12-.21l.13-.3.26-.59c.09-.2.12-.35.19-.53a12,12,0,0,0,.64-4.48,12.25,12.25,0,0,0-3.13-7.71,10.42,10.42,0,0,0-6.37-3.18,12,12,0,0,0-5.69.64,10.42,10.42,0,0,0-3.24,1.93,7.92,7.92,0,0,0-.72.71l-.24.25.21-.28a8,8,0,0,1,.64-.8,10.07,10.07,0,0,1,3.12-2.36,12.27,12.27,0,0,1,6-1.24,11.47,11.47,0,0,1,7.49,3.1,13.74,13.74,0,0,1,4.15,8.77,14.33,14.33,0,0,1-.53,5.44,11.18,11.18,0,0,1-.46,1.3l-.12.3-.18.37-.33.64a14.78,14.78,0,0,1-1.66,2.38,16.61,16.61,0,0,1-10.29,5.62l-.76.1-.81,0c-.57,0-1,0-1.47,0a17.09,17.09,0,0,1-3.11-.45,18.45,18.45,0,0,1-5.67-2.4,19.69,19.69,0,0,1-7.68-9.29,21,21,0,0,1-1-11.55,20.79,20.79,0,0,1,1.68-5.29,19.61,19.61,0,0,1,2.86-4.51,20.47,20.47,0,0,1,1.73-1.84,19.24,19.24,0,0,1,1.93-1.54,20.08,20.08,0,0,1,4.07-2.23,21.86,21.86,0,0,1,7.83-1.63,20.78,20.78,0,0,1,6.06.73,19.48,19.48,0,0,1,3.64,1.39Z" transform="translate(-173.06 -125.1)"/><path class="cls-3" d="M529.62,207.06c3-8.06,11.44-10.07,18.18-13.64a.83.83,0,0,0,0-1.51c-4.47-2.18-9.14-.17-12.74,2.76-3.91,3.19-5.33,7.41-6.1,12.21a.35.35,0,0,0,.67.18Z" transform="translate(-173.06 -125.1)"/><path class="cls-3" d="M526.44,203.85a12.63,12.63,0,0,1,2-10.84c1.77-2.64,4.72-4,6.51-6.56a.85.85,0,0,0-.56-1.34c-4-.87-7.41,3.53-8.7,6.82a14.77,14.77,0,0,0,.73,11.93s.09,0,.07,0Z" transform="translate(-173.06 -125.1)"/><path class="cls-3" d="M520,199.16c-4.12-8.7,2.68-14.32,9.29-18.68a.82.82,0,0,0-.2-1.4c-5-1.45-9.63,1.46-11.67,6.2a13.89,13.89,0,0,0,2.31,14,.16.16,0,0,0,.27-.16Z" transform="translate(-173.06 -125.1)"/><path class="cls-3" d="M398.3,223.31c6.06-5.92,14.17-24.16,4.23-29.72-.54-.3-1.14.21-1.23.71-.87,4.6,1.27,8,1.89,12.55.84,6.1-1.49,11.45-5,16.34,0,.07,0,.17.11.11Z" transform="translate(-173.06 -125.1)"/><path class="cls-3" d="M407.79,219.23a39.14,39.14,0,0,0,6.91-19.49c.32-4.62.3-15.08-5.35-16.63a1,1,0,0,0-1.22.51c-.74,2-.17,3.36.54,5.32A49.39,49.39,0,0,1,411.4,199a32,32,0,0,1-3.81,20.09c-.06.12.13.22.2.12Z" transform="translate(-173.06 -125.1)"/><path class="cls-3" d="M419.65,206.22a59.09,59.09,0,0,0,2.42-22.11c-.29-4.8-.77-16.19-7.35-16.62a1.1,1.1,0,0,0-1.11.65c-2.35,4.72,3.36,10.89,4.92,15.24,2.65,7.39,2.41,15.18.83,22.77a.16.16,0,0,0,.3.08Z" transform="translate(-173.06 -125.1)"/><path class="cls-3" d="M463.76,159.38a37.43,37.43,0,0,1-11-11.47c-2.54-4.08-4.25-8.8-7.63-12.29a.69.69,0,0,0-1.21.33c-2.14,10.86,10.91,20.29,19.6,23.8a.22.22,0,0,0,.21-.37Z" transform="translate(-173.06 -125.1)"/><path class="cls-3" d="M452.32,158c-4.46-3.3-8.2-7-10.58-12.08-2-4.25-2.41-8.88-3.9-13.29a.81.81,0,0,0-1.48,0c-4.53,10.34,6.08,23.14,15.72,25.76.24.07.46-.23.23-.4Z" transform="translate(-173.06 -125.1)"/><path class="cls-3" d="M437.3,153.09c-3.58-4.42-6.52-8.81-7.19-14.62-.49-4.21.55-8.72-.72-12.78-.25-.8-1.28-.71-1.74-.21-7.14,7.73,2.27,23.4,9.31,28,.23.15.54-.12.35-.36Z" transform="translate(-173.06 -125.1)"/><path class="cls-3" d="M548.3,497l-.27-.34a5.9,5.9,0,0,1-.69-1.07,7.24,7.24,0,0,1-.38-4.89,8.82,8.82,0,0,1,1.61-3.28A7.48,7.48,0,0,1,552.2,485a10.32,10.32,0,0,1,10.16,3,11.7,11.7,0,0,1,3,5.76,16.18,16.18,0,0,1-.12,7.15A20.69,20.69,0,0,1,562,507.9a35.85,35.85,0,0,1-5.57,6.18c-1.06,1-2.22,1.86-3.33,2.78s-2.38,1.79-3.63,2.66a77.82,77.82,0,0,1-8,4.77,93.35,93.35,0,0,1-18.84,7.06,137.09,137.09,0,0,1-21.53,3.76c-7.53.75-15.31,1.07-23.31,1.23s-16.19.22-24.54.56c-2.08.09-4.19.18-6.28.33s-4.25.26-6.35.46-4.24.36-6.38.61-4.28.49-6.43.77a267.34,267.34,0,0,0-51.93,12.25c-2.15.75-4.3,1.5-6.43,2.31s-4.27,1.63-6.39,2.48c-4.26,1.7-8.44,3.53-12.5,5.63A75,75,0,0,0,339,569a46.39,46.39,0,0,0-9.39,9.63l-1,1.38-.12.17-.07.12-.22.38-.44.75a23.62,23.62,0,0,0-1.59,3,36.31,36.31,0,0,0-2.26,6.24A41.62,41.62,0,0,0,322.7,604a46,46,0,0,0,9.29,24.7,41.49,41.49,0,0,0,4.41,4.88c.85.74,1.69,1.55,2.55,2.24l2.6,2a49.7,49.7,0,0,0,11.7,5.94,56.3,56.3,0,0,0,25.54,2.77,58.31,58.31,0,0,0,12.29-2.88,55,55,0,0,0,11.12-5.48c6.85-4.45,12.46-10.55,15.48-17.75a35.88,35.88,0,0,0,2.64-11.08,38,38,0,0,0-.88-11.08,34.2,34.2,0,0,0-10.65-17.92,37.15,37.15,0,0,0-17.31-8.64l-2.29-.38-2.28-.22-2.24-.07c-.76,0-1.53,0-2.26.09A33.51,33.51,0,0,0,374,572.8a30.94,30.94,0,0,0-12.94,8.44A24.5,24.5,0,0,0,355.21,593a28.63,28.63,0,0,0-.42,2.9c0,1-.12,1.87-.05,2.77l0,1.32.15,1.27a23.47,23.47,0,0,0,.41,2.4,22.63,22.63,0,0,0,3,7.35,11.84,11.84,0,0,0,.87,1.26,12.5,12.5,0,0,0,.82,1.06c.57.6,1,1.16,1.42,1.53l1.27,1.14-1.29-1.11c-.44-.36-.88-.9-1.46-1.5a12.55,12.55,0,0,1-.85-1,12,12,0,0,1-.9-1.25,22.88,22.88,0,0,1-3.21-7.35,23.82,23.82,0,0,1-.48-2.43l-.18-1.29-.08-1.35c-.09-.91,0-1.85,0-2.83a29.24,29.24,0,0,1,.37-3,25.21,25.21,0,0,1,5.83-12.16,31.91,31.91,0,0,1,13.19-8.94,34.63,34.63,0,0,1,8.69-2c.77-.08,1.51-.09,2.28-.14s1.57,0,2.37,0l2.37.19,2.39.35A38.36,38.36,0,0,1,409.9,579a36,36,0,0,1,11.41,18.73,40,40,0,0,1,1.05,11.67,37.92,37.92,0,0,1-2.69,11.82,38.52,38.52,0,0,1-6.56,10.55,47.08,47.08,0,0,1-9.57,8.37A57.56,57.56,0,0,1,398,643.4c-1,.47-1.95.95-3,1.37l-1.52.64L392,646A60.84,60.84,0,0,1,379.1,649a58.94,58.94,0,0,1-26.75-2.81A52.42,52.42,0,0,1,340,640l-2.84-2.13c-.91-.73-1.72-1.5-2.59-2.25a43.94,43.94,0,0,1-4.78-5.24,48.81,48.81,0,0,1-10-26.22,44.55,44.55,0,0,1,1.3-14.26,39,39,0,0,1,2.46-6.84,26,26,0,0,1,1.65-3.15l.43-.76.22-.38.15-.25.13-.19,1-1.49a49.35,49.35,0,0,1,10-10.21,77.93,77.93,0,0,1,12-7.47c4.17-2.14,8.47-4,12.77-5.69,2.15-.85,4.3-1.7,6.47-2.49s4.34-1.57,6.51-2.31a270,270,0,0,1,52.5-12.18c2.17-.27,4.33-.55,6.49-.75s4.31-.43,6.46-.59,4.27-.31,6.39-.43,4.24-.2,6.35-.26c8.41-.25,16.62-.2,24.59-.29s15.72-.31,23.15-1a135.3,135.3,0,0,0,21.3-3.48A94.37,94.37,0,0,0,540.81,523a76.47,76.47,0,0,0,8-4.54c1.24-.83,2.43-1.66,3.59-2.53s2.29-1.76,3.34-2.69c4.22-3.64,7.58-7.9,8.74-12.6s.26-9.44-2.52-12.32a10,10,0,0,0-9.62-3,7.17,7.17,0,0,0-3.54,2.31,8.62,8.62,0,0,0-1.65,3.17,7.14,7.14,0,0,0,.26,4.83,5.87,5.87,0,0,0,.66,1.08Z" transform="translate(-173.06 -125.1)"/><path class="cls-3" d="M411.86,630.43l1.52-1.9a45.63,45.63,0,0,1,4.82-4.93,49.57,49.57,0,0,1,8.85-6.08,47.94,47.94,0,0,1,13.14-4.8,46.72,46.72,0,0,1,16.61-.45,38,38,0,0,1,17.28,7.14,28,28,0,0,1,10.61,17.07,23.61,23.61,0,0,1,.3,5.32l0,.67c0,.31,0,.44-.07.68,0,.41-.1.83-.19,1.3a21.6,21.6,0,0,1-.62,2.63,27.91,27.91,0,0,1-5,9.39,32.82,32.82,0,0,1-17.47,11.21,27.69,27.69,0,0,1-10.33.65l-.32,0-.21,0-.15,0-.6-.11c-.4-.08-.78-.13-1.23-.25l-1.28-.32-1.21-.39a25.56,25.56,0,0,1-4.59-2.09,25,25,0,0,1-4-2.87c-.64-.52-1.19-1.12-1.78-1.68s-1.09-1.2-1.56-1.85a22,22,0,0,1-4-8.41,21.54,21.54,0,0,1,3.09-16.48,18.46,18.46,0,0,1,5.39-5.28,16.55,16.55,0,0,1,6.35-2.34,18.52,18.52,0,0,1,10.65,1.56,15.37,15.37,0,0,1,5.43,4.24,10.69,10.69,0,0,1,1,1.48l.33.53-.37-.5a10.59,10.59,0,0,0-1.13-1.4,15.79,15.79,0,0,0-5.54-3.81,17.69,17.69,0,0,0-10.21-1,15.23,15.23,0,0,0-5.75,2.44,17.31,17.31,0,0,0-4.74,5,20.08,20.08,0,0,0-2.62,7,19.78,19.78,0,0,0,.25,7.91A21.47,21.47,0,0,0,443,662.8a22.89,22.89,0,0,0,4.15,1.81l1.09.34,1.08.26c.34.1.77.15,1.16.22l.6.1.15,0h.1l.29,0a26.1,26.1,0,0,0,9.29-.68,29.94,29.94,0,0,0,15.83-10.27,24.94,24.94,0,0,0,4.5-8.36,18.87,18.87,0,0,0,.55-2.27c.08-.35.13-.76.18-1.19,0-.19.07-.47.07-.57l0-.58a20.7,20.7,0,0,0-.24-4.66,24.7,24.7,0,0,0-3.31-8.66,25.56,25.56,0,0,0-2.75-3.68,27.3,27.3,0,0,0-3.33-3.15,36.63,36.63,0,0,0-16-7,46.69,46.69,0,0,0-15.95-.07,50.1,50.1,0,0,0-13,4.1,48.72,48.72,0,0,0-9,5.53,53,53,0,0,0-5.06,4.58Z" transform="translate(-173.06 -125.1)"/><path class="cls-3" d="M426.55,610.48l.36-1.41a15.07,15.07,0,0,1,.51-1.67l.36-1.06.5-1.16a35.89,35.89,0,0,1,8.68-12,49,49,0,0,1,7.95-6c1.51-.93,3.1-1.79,4.79-2.63s3.4-1.58,5.18-2.27a112.32,112.32,0,0,1,11.21-3.71c3.86-1.07,7.79-2,11.7-3s7.79-2,11.54-3.16a93.69,93.69,0,0,0,10.75-4.05,57.32,57.32,0,0,0,9.27-5.28c.69-.5,1.37-1,2-1.51s1.26-1,1.86-1.57a28.64,28.64,0,0,0,3.23-3.26,16.81,16.81,0,0,0,3.68-6.93,11.14,11.14,0,0,0-.35-6.06,8.87,8.87,0,0,0-2.11-3.38,7.49,7.49,0,0,0-.83-.69l-.3-.22.32.18a7.59,7.59,0,0,1,.91.6,8.77,8.77,0,0,1,2.55,3.28,11.56,11.56,0,0,1,.94,6.46,17.32,17.32,0,0,1-3.46,7.82,38.34,38.34,0,0,1-7.1,7.07,53,53,0,0,1-9.47,5.87,83,83,0,0,1-11,4.43c-3.83,1.24-7.76,2.31-11.69,3.31s-7.85,1.91-11.67,2.93-7.54,2.08-11,3.38c-1.77.63-3.4,1.32-5.1,2s-3.2,1.49-4.68,2.32a53.76,53.76,0,0,0-7.94,5.37,42.31,42.31,0,0,0-5.74,5.73,33.13,33.13,0,0,0-3.53,5.2l-.59,1.09-.46,1a14.86,14.86,0,0,0-.69,1.6Z" transform="translate(-173.06 -125.1)"/><path class="cls-3" d="M427.43,609.38l.19-.65c.14-.42.27-1.07.59-1.87a22,22,0,0,1,3.8-6.43,28.64,28.64,0,0,1,9.22-7.12A35.67,35.67,0,0,1,456,589.54l2.08,0c.71,0,1.45.05,2.18.08,1.46.09,2.93.23,4.43.44a70,70,0,0,1,9.1,2c6.14,1.71,12.38,4.15,18.77,6.62a114.26,114.26,0,0,0,20,6.09,47.78,47.78,0,0,0,10.52.85c.88,0,1.76-.07,2.63-.18.42,0,.92-.08,1.27-.14l1.35-.23.68-.11.62-.16,1.24-.31c.83-.24,1.66-.52,2.49-.8a31.06,31.06,0,0,0,9-5.19,23,23,0,0,0,6.25-8,18.05,18.05,0,0,0,.91-2.34c.25-.79.4-1.61.58-2.42l.14-1.23.07-.61,0-.15c0,.13,0,0,0,0v-1.75c0-.42-.09-.78-.13-1.18a18.72,18.72,0,0,0-.45-2.37l-.38-1.16a7.52,7.52,0,0,0-.44-1.14l-.49-1.11-.6-1.06a22.16,22.16,0,0,0-1.33-2,21,21,0,0,0-7.25-6,17.11,17.11,0,0,0-8.83-1.74,18.67,18.67,0,0,0-8.12,2.68,19.67,19.67,0,0,0-6,5.5,17.8,17.8,0,0,0-3,6.86,16.57,16.57,0,0,0,.11,6.8,19.67,19.67,0,0,0,5.44,9.74,18.2,18.2,0,0,0,6.13,4,12.32,12.32,0,0,0,1.86.59l.65.17-.66-.13a12.44,12.44,0,0,1-1.9-.48,17.68,17.68,0,0,1-6.47-3.72,20.5,20.5,0,0,1-6.13-9.9,17.91,17.91,0,0,1-.45-7.31,19,19,0,0,1,3-7.6,21.53,21.53,0,0,1,6.35-6.23,20.42,20.42,0,0,1,9.07-3.21,19.51,19.51,0,0,1,10,1.75,23,23,0,0,1,8.29,6.65,24.82,24.82,0,0,1,1.54,2.27l.69,1.2.59,1.26a9.31,9.31,0,0,1,.52,1.3c.15.44.32.88.46,1.33a21.22,21.22,0,0,1,.58,2.81c.06.48.14,1,.16,1.46l0,1.33v.58l0,.18-.07.71-.14,1.43c-.2.94-.37,1.89-.66,2.81a21,21,0,0,1-1,2.7,25.91,25.91,0,0,1-7,9.06,33.87,33.87,0,0,1-9.88,5.75c-.91.31-1.81.61-2.74.87l-1.43.35-.72.17-.68.11-1.35.22c-.56.09-1,.1-1.46.16-.94.11-1.89.15-2.83.18a50.69,50.69,0,0,1-11.14-1c-7.27-1.36-14-4-20.41-6.48s-12.48-5.13-18.44-6.94A59.13,59.13,0,0,0,456,591.26a36.62,36.62,0,0,0-7.62.88,32.52,32.52,0,0,0-6.62,2.18,27.81,27.81,0,0,0-9.26,6.5,23,23,0,0,0-4.08,6.1c-.36.78-.54,1.42-.7,1.83Z" transform="translate(-173.06 -125.1)"/><path class="cls-3" d="M503.11,612.41s.83.19,2.25.59c.36.09.75.22,1.18.32l1.39.3,1.56.34,1.76.29c.61.09,1.24.22,1.91.29l2,.22a19.57,19.57,0,0,0,2.16.15c.74,0,1.49.09,2.25.11,1.53,0,3.11,0,4.71-.14s3.22-.31,4.83-.5,3.21-.53,4.76-.94,3.08-.81,4.55-1.24c.73-.23,1.42-.53,2.12-.76a19.57,19.57,0,0,0,2-.77l1.89-.81c.62-.26,1.18-.57,1.74-.83l1.6-.79,1.4-.79c.89-.49,1.67-.92,2.27-1.33,1.24-.79,2-1.22,2-1.22s-.56.63-1.61,1.69c-.27.26-.55.57-.88.87l-1.11.94-1.28,1.07c-.46.36-1,.69-1.51,1.06s-1.07.76-1.67,1.12l-1.87,1.06a21.18,21.18,0,0,1-2,1c-.7.33-1.43.66-2.18,1a44.78,44.78,0,0,1-4.73,1.58,48.79,48.79,0,0,1-5,1.09c-1.72.17-3.43.41-5.14.42a43.42,43.42,0,0,1-5-.12c-.81-.07-1.59-.18-2.36-.29a21.13,21.13,0,0,1-2.24-.39l-2.1-.46c-.67-.17-1.31-.4-1.92-.58s-1.2-.36-1.75-.57l-1.54-.65-1.34-.57c-.4-.19-.76-.4-1.08-.57C503.84,612.85,503.11,612.41,503.11,612.41Z" transform="translate(-173.06 -125.1)"/><path class="cls-3" d="M323.59,569.67l-.64.93c-.41.61-1.06,1.48-1.75,2.66-.35.58-.77,1.21-1.17,1.92l-1.28,2.32-1.32,2.7-1.32,3.05a68.31,68.31,0,0,0-2.3,7.09,63,63,0,0,0-1.56,8.14,65.41,65.41,0,0,0-.4,8.82,55.75,55.75,0,0,0,3.48,17.77,66.17,66.17,0,0,0,3.7,8,63.28,63.28,0,0,0,4.52,6.94,68.62,68.62,0,0,0,4.81,5.7l2.38,2.33,2.24,2,2.06,1.67c.64.51,1.27.93,1.81,1.34,1.09.82,2,1.38,2.62,1.8l.94.62-1-.48c-.66-.33-1.67-.73-2.86-1.43-.6-.34-1.28-.7-2-1.13L332.27,651l-2.49-1.82c-.85-.67-1.71-1.43-2.63-2.19s-1.8-1.65-2.69-2.58-1.82-1.9-2.67-3a53.19,53.19,0,0,1-5-7,57.85,57.85,0,0,1-4.12-8.3,51.92,51.92,0,0,1-3.67-18.75,58.39,58.39,0,0,1,.69-9.24,53.35,53.35,0,0,1,2-8.4c.39-1.32.89-2.55,1.36-3.76s1-2.31,1.52-3.4,1.07-2.08,1.61-3l1.62-2.62,1.55-2.22c.49-.67,1-1.26,1.42-1.81.83-1.1,1.62-1.85,2.1-2.4Z" transform="translate(-173.06 -125.1)"/><path class="cls-3" d="M311.65,621.84l.35,1.76c.22,1.15.58,2.84.93,5s.75,4.81,1,7.88a44,44,0,0,1-.38,10.39,30.35,30.35,0,0,1-4.43,11.61,21.39,21.39,0,0,1-10.91,8.88,19.09,19.09,0,0,1-3.69.89l-1.92.17-1.93,0a23.08,23.08,0,0,1-7.54-1.82,27.5,27.5,0,0,1-12-9.94,27,27,0,0,1-4.4-14.94,22,22,0,0,1,1.39-7.64c.13-.32.21-.57.37-.93l.38-.82a19.17,19.17,0,0,1,1-1.71,19.38,19.38,0,0,1,2.3-3A18.93,18.93,0,0,1,278,623.2a16.2,16.2,0,0,1,6.89-1.53A15.37,15.37,0,0,1,296.31,627a12.61,12.61,0,0,1,2.68,5l.16.66c.06.3.06.44.1.67l.08.62,0,.67v.66l-.06.63a7.12,7.12,0,0,1-.18,1.21,12.82,12.82,0,0,1-4,7,10.28,10.28,0,0,1-4.53,2.4,7,7,0,0,1-1.33.21l-.46,0,.45-.09a7,7,0,0,0,1.29-.33,10.55,10.55,0,0,0,4.17-2.66,12.66,12.66,0,0,0,2-2.85,12.09,12.09,0,0,0,1.22-3.9,10.75,10.75,0,0,0-3-8.79,13.76,13.76,0,0,0-10.08-4.25,15.38,15.38,0,0,0-10.9,5.43,16.7,16.7,0,0,0-1.93,2.66,16.22,16.22,0,0,0-.76,1.43l-.36.83c-.08.19-.19.51-.28.75a20.63,20.63,0,0,0-1.12,6.7,24.08,24.08,0,0,0,4,13.27,24.57,24.57,0,0,0,10.62,8.94,21.74,21.74,0,0,0,6.59,1.7l1.67.07,1.66-.11a15.84,15.84,0,0,0,3.2-.71,19.54,19.54,0,0,0,9.89-7.62,29.86,29.86,0,0,0,4.6-10.71,48.57,48.57,0,0,0,1-10c0-3-.22-5.67-.42-7.85C311.93,624.33,311.65,621.84,311.65,621.84Z" transform="translate(-173.06 -125.1)"/><path class="cls-3" d="M301.82,614.1s-.26-.86-.67-2.38c-.1-.38-.23-.8-.32-1.26l-.26-1.53-.29-1.75c-.08-.62-.1-1.27-.16-1.95s-.12-1.39-.13-2.13l0-2.28a22.59,22.59,0,0,1,.14-2.41c.07-.82.15-1.66.27-2.51a46.92,46.92,0,0,1,1.07-5.19c.42-1.76,1.07-3.48,1.65-5.22.75-1.68,1.43-3.38,2.32-5a45.89,45.89,0,0,1,2.73-4.54c.49-.7,1-1.38,1.5-2a22.59,22.59,0,0,1,1.53-1.87l1.52-1.7c.51-.54,1.05-1,1.54-1.48s1-.92,1.44-1.32l1.39-1.08,1.22-.94c.39-.28.77-.5,1.1-.72,1.34-.84,2.11-1.29,2.11-1.29s-.63.66-1.73,1.76c-.27.28-.59.56-.91.91l-1,1.13-1.15,1.27-1.2,1.47c-.41.52-.86,1-1.28,1.61L313,573.48a21,21,0,0,0-1.28,1.92c-.41.68-.88,1.32-1.29,2-.8,1.43-1.64,2.88-2.37,4.43s-1.42,3.14-2.1,4.73-1.24,3.25-1.66,4.9-.88,3.27-1.26,4.86c-.17.8-.26,1.6-.42,2.37a21.08,21.08,0,0,0-.35,2.28l-.26,2.18c-.09.7-.1,1.39-.15,2l-.11,1.89v1.7l0,1.51c0,.47,0,.91.05,1.3C301.81,613.2,301.82,614.1,301.82,614.1Z" transform="translate(-173.06 -125.1)"/><path class="cls-3" d="M406.35,569s.56,0,1.52.06a9.66,9.66,0,0,1,1.74.24l1.09.21c.38.09.75.23,1.16.35s.83.25,1.26.42l1.3.57a10.88,10.88,0,0,1,1.34.68c.45.25.91.51,1.36.8a23.93,23.93,0,0,1,2.62,2,22.17,22.17,0,0,1,4.46,5.12,21.58,21.58,0,0,1,2.71,5.74l.38,1.37c.11.44.16.89.24,1.3s.15.81.19,1.19l.06,1.09a10,10,0,0,1,0,1.76c-.07,1-.15,1.52-.15,1.52s-.19-.54-.45-1.45c-.11-.46-.31-1-.53-1.62s-.46-1.3-.78-2-.67-1.5-1.06-2.3a12,12,0,0,0-.64-1.21c-.24-.4-.45-.83-.7-1.24-.54-.81-1-1.67-1.66-2.47s-1.26-1.61-1.9-2.41-1.37-1.53-2.12-2.21-1.49-1.34-2.22-2-1.49-1.2-2.25-1.67-1.44-1-2.14-1.37l-1-.58-.91-.47a16.54,16.54,0,0,0-1.54-.75C406.85,569.3,406.35,569,406.35,569Z" transform="translate(-173.06 -125.1)"/><path class="cls-3" d="M527,537.11s.71-.19,1.95-.46c.63-.12,1.37-.33,2.21-.55s1.78-.47,2.8-.79,2.11-.68,3.25-1.07c.58-.18,1.15-.41,1.74-.66l1.8-.71c1.2-.54,2.44-1.09,3.67-1.71s2.45-1.3,3.67-2,2.4-1.44,3.52-2.23,2.24-1.57,3.3-2.35c.52-.4,1-.84,1.51-1.22s1-.78,1.43-1.19c.9-.8,1.78-1.55,2.53-2.3s1.47-1.42,2.07-2.05,1.15-1.17,1.56-1.65c.84-.94,1.36-1.46,1.36-1.46s-.29.66-.87,1.81a18.36,18.36,0,0,1-1.14,2l-.75,1.21c-.28.42-.61.83-.93,1.28s-.66.91-1,1.37l-1.22,1.39a37.71,37.71,0,0,1-2.81,2.84c-1.06.89-2.11,1.88-3.32,2.7s-2.44,1.65-3.69,2.44-2.6,1.42-3.95,2a41.37,41.37,0,0,1-4,1.57,38.13,38.13,0,0,1-3.85,1.05l-1.81.37c-.59.1-1.16.16-1.71.23s-1.07.15-1.57.18l-1.43.06a18.09,18.09,0,0,1-2.3,0C527.77,537.18,527,537.11,527,537.11Z" transform="translate(-173.06 -125.1)"/><path class="cls-3" d="M423.47,639.66l-.17.52c-.11.34-.3.84-.47,1.47s-.36,1.4-.57,2.28-.31,1.89-.43,3a31.52,31.52,0,0,0-.06,3.51,25.3,25.3,0,0,0,1.58,7.8,23.49,23.49,0,0,0,1.81,3.73,25.76,25.76,0,0,0,2.53,3.42,27.39,27.39,0,0,0,3,2.82,28.44,28.44,0,0,0,3.2,2.19A31.82,31.82,0,0,0,437,672c1,.4,2,.74,2.84,1s1.64.44,2.29.55,1.16.21,1.51.27l.54.09-.54.08a12.83,12.83,0,0,1-1.55.16,18.19,18.19,0,0,1-2.45,0l-1.51-.17c-.53-.08-1.08-.21-1.66-.32a22.86,22.86,0,0,1-7.38-3.27,21.84,21.84,0,0,1-6.45-6.73,25.79,25.79,0,0,1-2-4.41,23.64,23.64,0,0,1-1-4.51,22.89,22.89,0,0,1,.52-8.06c.17-.57.3-1.11.48-1.62l.55-1.41a18.43,18.43,0,0,1,1.12-2.18,12.7,12.7,0,0,1,.85-1.3Z" transform="translate(-173.06 -125.1)"/><path class="cls-3" d="M298.48,569.38c-5.46,1.59-10.23,6.24-13.08,11.05-2.39,4-4,10.65.2,14a1,1,0,0,0,1.43-.39c1.82-3.5,1.18-7.72,2-11.52,1.21-5.93,4.66-9.62,9.72-12.62a.29.29,0,0,0-.23-.54Z" transform="translate(-173.06 -125.1)"/><path class="cls-3" d="M434.23,588.08c4.1-10.42,16.64-7.07,24.92-10.91,4.81-2.23,8.3-8.18,5-13a.85.85,0,0,0-1.44.2,20.3,20.3,0,0,1-6.11,8.56c-3.32,2.83-7.49,3.67-11.47,5.2-5,1.92-9.83,4.3-11.72,9.65-.19.54.62.88.83.34Z" transform="translate(-173.06 -125.1)"/><path class="cls-3" d="M431.15,583.63c3.22-2,6.19-4.43,9.39-6.51a40,40,0,0,0,7-5.07c2.85-2.89,4.92-8.16.91-11a.79.79,0,0,0-1.25.52c-1,5.11-1.85,8.72-5.72,12.49-3.36,3.28-7.19,6-10.59,9.24a.2.2,0,0,0,.24.31Z" transform="translate(-173.06 -125.1)"/><path class="cls-3" d="M510.11,450.74c8.06-6.22,17.46-5,26.78-7.59,6.33-1.73,12.18-5.27,13.32-12.24a.65.65,0,0,0-1.15-.47c-9.51,12.78-30.46,6.87-39.19,20.06a.18.18,0,0,0,.25.24Z" transform="translate(-173.06 -125.1)"/><path class="cls-3" d="M514.32,453.17c8.91-3.46,17.84,2.63,27.24,1.2,6.41-1,14.46-4.49,16.24-11.24.16-.62-.61-1-1.11-.84-3.67,1.51-6.37,4.3-9.88,6.09a30,30,0,0,1-13.69,3.53c-5.63,0-14.49-4.11-18.94,1.08-.08.09,0,.22.14.18Z" transform="translate(-173.06 -125.1)"/><path class="cls-3" d="M515.72,457.48c6.17-.31,9.88,5,15,7.46a24.81,24.81,0,0,0,11.4,2.33c5.83-.17,17.09-3.14,17.86-10.21.05-.48-.39-1.05-.93-.92-3.39.85-5.85,3.7-9,5.24A25.9,25.9,0,0,1,536,463.83c-5.24-.58-8.76-3.1-13.3-5.5-2.44-1.29-4.38-1.81-7-1.06-.14,0-.06.23.06.22Z" transform="translate(-173.06 -125.1)"/><path class="cls-3" d="M365.94,591.7a19,19,0,0,0,1.39,18.47c2.6,3.9,9.42,8.81,14.1,6a.79.79,0,0,0,0-1.24c-3.06-2.55-7.41-2.66-10.64-5.39-5.51-4.65-6.3-11-4.27-17.61a.31.31,0,0,0-.58-.24Z" transform="translate(-173.06 -125.1)"/><path class="cls-3" d="M370.49,593.14c-.61,4.9,2.24,10.8,6.14,13.74,3.56,2.69,11.37,4.91,13.9-.14a.73.73,0,0,0-.39-.94c-3.54-1.6-7.63-.16-11.37-1.62-5-2-6.91-6-7.62-11a.33.33,0,0,0-.66,0Z" transform="translate(-173.06 -125.1)"/><path class="cls-3" d="M375.11,593.37c2.66,6.31,16.75,13.26,21.27,5.45a.79.79,0,0,0-.73-1.24c-3.43.1-6.53,1.71-10,1.47-4.42-.3-7.29-2.71-10-6a.33.33,0,0,0-.57.34Z" transform="translate(-173.06 -125.1)"/><path class="cls-3" d="M475.46,640.51c-.37,5.25-1.83,10.94-8.33,10.77-3.52-.1-6.75-2.38-10.18-2a2.32,2.32,0,0,0-2,2.59c1.09,6.86,10.94,6.46,15.29,3.28,4-2.91,7.53-9.84,5.4-14.7a.12.12,0,0,0-.22,0Z" transform="translate(-173.06 -125.1)"/><path class="cls-3" d="M318.11,651.15c.41,4-.37,8.17-3,11.25s-5.4,3.72-9.13,4.87c-3.94,1.21-1.33,7.75,2.59,6,7.5-3.36,12-14.49,10-22.17a.23.23,0,0,0-.46.06Z" transform="translate(-173.06 -125.1)"/><path class="cls-3" d="M368.61,502.45c1.4-12.28,9.58-21.24,18.24-29.41.47-.45.22-1.44-.55-1.28-13.73,2.86-19.75,17.93-18.08,30.69a.2.2,0,0,0,.39,0Z" transform="translate(-173.06 -125.1)"/><path class="cls-3" d="M366.79,484.64a36.11,36.11,0,0,1,7.14-12.47c2.85-3.41,6.7-6.21,9.15-9.91a1.13,1.13,0,0,0-1-1.77c-10.82.93-15.66,14.9-16,24,0,.39.58.62.71.19Z" transform="translate(-173.06 -125.1)"/><text class="cls-4" transform="matrix(0.95, -0.26, 0.27, 0.96, 125.82, 302.19)"><tspan class="cls-5">April 21st</tspan><tspan class="cls-6" x="157.03" y="0">,</tspan><tspan class="cls-7" x="163.95" y="0" xml:space="preserve"> 2018</tspan></text></svg>